<?xml version="1.0" standalone="no"?>
<!DOCTYPE svg PUBLIC "-//W3C//DTD SVG 20010904//EN"
 "http://www.w3.org/TR/2001/REC-SVG-20010904/DTD/svg10.dtd">
<svg version="1.0" xmlns="http://www.w3.org/2000/svg"
 width="700.000000pt" height="700.000000pt" viewBox="0 0 700.000000 700.000000"
 preserveAspectRatio="xMidYMid meet">
<metadata>
Created by potrace 1.11, written by Peter Selinger 2001-2013
</metadata>
<g transform="translate(0.000000,700.000000) scale(0.100000,-0.100000)"
fill="#000000" stroke="none">
<path d="M5724 6750 c-21 -8 -60 -13 -199 -25 -254 -22 -606 -131 -636 -198
-10 -22 -27 -33 -98 -67 -8 -3 -16 -15 -17 -25 -2 -11 -11 -25 -21 -32 -54
-39 -55 -41 -32 -64 19 -19 19 -22 5 -32 -10 -8 -26 -57 -41 -132 -14 -66 -34
-148 -45 -182 -11 -34 -20 -75 -20 -92 0 -16 -5 -42 -11 -58 -25 -66 -47 -371
-31 -424 6 -19 13 -56 17 -84 10 -85 17 -119 32 -147 7 -15 13 -30 13 -33 -1
-42 4 -58 27 -80 22 -20 24 -25 10 -25 -22 0 -22 1 7 -62 13 -29 32 -80 42
-113 10 -33 23 -66 28 -74 6 -7 11 -30 11 -50 0 -30 3 -35 19 -33 16 3 18 -1
13 -27 -4 -18 -2 -31 3 -31 6 0 10 -13 10 -29 0 -46 10 -64 26 -50 18 15 18
10 -1 -35 -15 -36 -15 -36 9 -36 21 0 26 -7 39 -62 44 -187 49 -199 84 -222
18 -11 36 -30 39 -41 4 -11 17 -33 30 -48 13 -16 24 -36 24 -44 0 -9 8 -30 19
-47 10 -17 22 -42 26 -56 4 -14 16 -32 27 -41 13 -10 22 -32 25 -60 3 -24 13
-53 22 -64 10 -11 30 -41 45 -67 15 -27 31 -48 35 -48 5 0 16 -19 24 -42 9
-24 28 -72 42 -107 15 -35 27 -79 27 -97 0 -26 7 -39 33 -58 18 -14 36 -38 39
-53 4 -15 20 -61 37 -101 16 -40 27 -76 24 -81 -2 -5 2 -11 10 -15 8 -3 15
-17 15 -30 0 -14 6 -29 14 -33 14 -9 39 -50 42 -71 5 -29 14 -41 26 -37 10 4
13 -5 10 -35 -3 -30 -1 -40 9 -38 9 2 12 -7 10 -30 -2 -24 3 -40 18 -53 12
-11 21 -28 21 -37 0 -10 7 -27 15 -38 8 -10 15 -31 15 -46 0 -15 5 -30 10 -33
6 -3 10 -17 10 -29 0 -13 9 -30 20 -37 15 -10 24 -36 35 -99 8 -47 15 -86 15
-87 0 -1 6 -8 13 -15 17 -18 51 -217 52 -305 0 -39 3 -75 8 -79 13 -14 7 -39
-18 -68 -25 -29 -25 -29 -5 -48 21 -20 18 -40 -11 -69 -11 -11 -15 -26 -12
-38 3 -12 -2 -32 -11 -46 -9 -13 -16 -35 -16 -48 0 -14 -7 -31 -16 -38 -11 -9
-14 -23 -10 -47 4 -29 3 -32 -9 -22 -13 11 -15 7 -16 -21 -3 -86 -4 -94 -17
-91 -7 1 -15 -11 -18 -28 -4 -16 -12 -30 -19 -30 -18 0 -27 -44 -15 -74 8 -22
7 -26 -10 -26 -11 0 -27 -11 -36 -25 -9 -14 -20 -22 -25 -19 -5 3 -9 0 -9 -6
0 -6 -12 -15 -26 -20 -24 -10 -26 -14 -21 -51 4 -31 2 -38 -6 -30 -17 17 -27
13 -37 -14 -5 -14 -15 -25 -23 -25 -7 0 -32 -20 -55 -44 -24 -25 -52 -48 -62
-51 -11 -4 -20 -15 -20 -26 0 -21 -10 -25 -26 -10 -5 6 -9 -1 -10 -21 -2 -38
-19 -50 -65 -45 -47 6 -96 -16 -111 -48 -10 -23 -16 -26 -45 -20 -44 8 -70 -1
-76 -26 -6 -21 -10 -22 -147 -21 -47 0 -96 4 -110 10 l-25 10 1 178 c1 172 2
181 27 229 14 28 34 59 45 70 10 11 32 38 48 60 21 29 36 40 54 39 14 0 33 8
43 18 10 10 29 18 42 18 13 0 32 8 42 18 10 10 30 23 45 29 15 7 45 28 67 48
25 23 42 32 46 25 16 -25 158 13 176 47 7 14 21 29 30 34 26 13 34 112 15 168
-9 24 -14 46 -11 51 2 4 -31 19 -74 33 -105 36 -179 36 -249 1 -32 -16 -63
-24 -78 -21 -18 3 -24 1 -20 -8 3 -9 -8 -15 -32 -18 -72 -10 -143 -36 -180
-67 -27 -22 -47 -30 -76 -30 -24 0 -43 -6 -51 -16 -9 -14 -16 -14 -33 -5 -18
10 -23 9 -28 -4 -3 -8 -4 -21 -1 -29 7 -18 -7 -23 -45 -18 -30 5 -41 38 -14
44 10 2 11 9 4 27 l-9 24 -21 -23 c-20 -21 -21 -22 -32 -4 -11 20 -13 25 -15
49 -1 18 -24 18 -74 0 -31 -11 -37 -11 -33 0 2 7 -1 21 -8 31 -12 16 -14 15
-27 -11 -17 -35 -39 -44 -39 -17 0 15 -9 21 -46 26 -26 3 -68 6 -95 6 -52 0
-53 -1 -64 -80 -4 -24 -11 -53 -17 -63 -12 -24 -12 -24 42 -32 50 -7 80 -33
80 -72 l0 -25 30 26 c36 30 117 56 172 56 l39 0 -24 -33 c-13 -17 -24 -43 -25
-57 -1 -13 -8 -30 -17 -37 -11 -7 -15 -19 -10 -32 10 -32 -4 -79 -26 -86 -10
-4 -19 -15 -19 -26 0 -11 -7 -19 -16 -19 -11 0 -14 -6 -9 -21 7 -20 4 -21 -23
-16 l-30 6 2 -60 c1 -54 -1 -61 -27 -82 -32 -25 -34 -40 -22 -130 6 -48 5 -57
-7 -57 -13 0 -15 -13 -12 -70 1 -38 8 -78 13 -89 17 -30 13 -76 -7 -94 -10
-10 -22 -17 -27 -17 -4 0 -13 -8 -20 -17 -11 -15 -13 -15 -24 5 -17 32 -31 27
-31 -10 0 -30 -1 -30 -19 -14 -10 9 -33 19 -52 21 -32 4 -59 27 -59 50 0 6
-18 21 -41 33 -31 17 -45 19 -60 12 -13 -7 -25 -7 -38 0 -14 7 -27 7 -45 -2
-20 -8 -35 -8 -66 1 -42 12 -65 6 -90 -24 -11 -14 -14 -14 -26 2 -12 17 -13
16 -23 -10 -10 -25 -22 -32 -46 -27 -5 1 0 -9 11 -22 12 -13 28 -37 37 -53 22
-44 95 -64 239 -66 116 -2 118 -2 118 21 0 24 0 24 45 3 34 -16 46 -45 25 -58
-18 -11 -11 -21 22 -30 18 -6 38 -21 45 -34 6 -14 22 -30 35 -37 13 -7 25 -25
28 -40 7 -39 30 -43 30 -5 0 38 17 40 53 7 l26 -24 -1 28 c-1 15 9 41 21 58
11 17 21 34 21 38 0 4 7 16 16 25 13 14 21 16 36 8 10 -5 16 -14 13 -20 -4 -5
-2 -9 3 -9 5 0 14 11 20 25 12 25 36 33 47 15 3 -6 11 -10 16 -10 6 0 7 5 3
11 -10 17 29 -6 46 -26 8 -10 25 -21 38 -26 13 -5 26 -18 29 -29 3 -11 14 -22
25 -26 11 -3 17 -12 14 -20 -3 -7 4 -20 16 -28 11 -8 26 -25 32 -38 9 -17 19
-22 39 -20 15 2 42 -6 61 -17 38 -24 60 -27 53 -8 -3 8 -1 20 3 28 7 10 11 7
19 -14 11 -29 40 -45 75 -41 11 1 27 3 35 3 10 1 11 4 2 15 -9 11 -9 16 0 22
7 4 17 0 23 -8 10 -14 14 -14 36 4 18 14 34 18 63 15 25 -3 40 0 43 8 3 8 33
16 72 20 74 8 154 34 185 62 14 13 21 15 24 6 8 -22 29 -14 72 27 22 22 50 40
61 40 46 0 143 42 175 75 18 19 39 35 47 35 16 0 60 44 77 77 7 14 18 20 31
18 11 -2 25 1 30 8 5 7 29 37 53 67 23 30 53 59 65 65 12 5 25 18 28 27 3 12
15 18 35 18 24 0 36 10 27 23 -5 8 25 47 37 47 19 0 35 32 29 57 -4 14 2 29
15 42 12 12 21 32 21 45 0 13 11 39 24 59 13 19 27 45 31 58 4 13 16 30 25 38
12 10 26 54 40 119 11 56 27 120 35 142 8 21 15 81 16 132 1 51 5 103 10 115
7 19 5 23 -11 23 -12 0 -20 7 -21 18 -4 75 -11 117 -23 146 -9 22 -11 37 -5
43 7 7 3 22 -10 44 -21 36 -35 91 -46 176 -3 29 -22 89 -40 135 -21 50 -35
100 -35 127 0 34 -3 42 -15 38 -10 -4 -17 5 -25 31 -5 20 -10 43 -10 50 0 21
-42 112 -51 112 -5 0 -9 11 -9 25 0 37 -35 133 -103 280 -32 72 -68 152 -78
179 -11 26 -26 55 -34 63 -8 8 -15 20 -16 26 -3 45 -26 110 -47 133 -23 24
-42 78 -42 115 0 19 -9 34 -29 48 -22 16 -29 28 -27 52 0 20 -5 34 -13 37 -10
3 -12 0 -7 -13 5 -15 4 -16 -9 -5 -10 8 -15 30 -15 61 0 37 -4 51 -19 59 -11
5 -18 18 -17 27 2 11 -5 20 -18 23 -14 4 -24 20 -33 50 -7 24 -22 53 -33 65
-11 12 -18 29 -15 37 4 9 0 18 -8 21 -10 4 -13 16 -11 37 3 25 -2 37 -20 51
-14 11 -32 43 -42 72 -9 28 -28 66 -41 83 -12 17 -23 37 -23 45 0 8 -9 43 -20
79 -11 36 -23 90 -27 120 -3 30 -12 64 -20 76 -7 12 -11 28 -8 36 4 10 -1 17
-15 21 -13 3 -22 16 -26 35 -4 17 -13 33 -20 36 -10 4 -12 14 -8 31 4 17 2 27
-8 30 -8 3 -14 16 -13 28 2 26 -31 96 -54 115 -12 10 -13 15 -3 18 21 10 13
35 -22 68 -22 21 -39 49 -49 86 -9 30 -28 70 -42 89 -14 19 -25 47 -25 62 0
15 -4 30 -9 33 -5 4 -12 24 -16 46 -4 23 -14 55 -23 73 -14 27 -17 65 -17 237
1 203 1 206 28 255 14 28 31 75 38 105 12 60 26 83 42 73 6 -4 8 4 5 22 -7 37
46 97 100 113 25 8 43 21 51 38 7 15 17 24 25 21 8 -3 31 7 52 22 52 36 139
71 180 71 18 0 36 5 40 12 5 8 11 5 20 -7 12 -16 17 -17 39 -5 29 15 75 1 75
-24 0 -11 8 -12 38 -5 20 4 98 6 173 3 100 -3 146 -1 175 9 22 8 45 11 54 6 8
-4 28 -11 44 -14 16 -3 41 -19 57 -34 20 -21 29 -25 33 -15 10 26 26 14 26
-20 0 -40 15 -56 23 -25 9 33 32 17 35 -25 4 -40 23 -56 47 -36 15 12 16 11
19 -10 0 -6 6 -14 12 -18 7 -4 15 -36 19 -72 4 -36 11 -73 16 -82 5 -9 9 -26
9 -37 0 -26 -64 -149 -112 -216 -20 -27 -39 -60 -42 -72 -4 -13 -14 -23 -22
-23 -27 0 -78 -32 -144 -90 -74 -65 -95 -77 -136 -83 -23 -3 -30 -9 -32 -30
-2 -15 -11 -29 -23 -32 -24 -8 -105 -89 -121 -122 -8 -15 -29 -31 -51 -38 -21
-7 -46 -20 -56 -29 -10 -9 -25 -16 -34 -16 -9 0 -17 -6 -17 -14 0 -8 -24 -26
-54 -41 -77 -38 -96 -58 -96 -104 0 -36 3 -41 43 -60 24 -12 51 -21 60 -21 10
0 20 -7 24 -15 5 -14 8 -14 24 1 17 16 19 16 25 0 6 -15 9 -15 23 -3 9 8 48
17 86 20 42 4 100 18 145 36 41 17 83 30 94 31 10 0 34 14 53 30 18 17 43 30
53 30 11 0 20 5 20 10 0 6 9 10 21 10 33 0 58 18 73 55 11 24 19 32 33 29 13
-3 22 5 33 28 8 17 22 34 30 37 13 4 13 2 1 -13 -12 -14 -12 -16 0 -11 8 3 21
20 29 38 7 17 24 40 36 50 13 10 25 26 29 35 3 10 21 26 41 36 21 10 40 28 47
45 5 15 26 36 46 47 25 14 38 29 46 55 5 20 25 50 43 67 17 16 32 35 32 40 0
6 22 37 49 70 27 32 56 72 64 88 23 44 131 141 166 149 16 3 39 2 49 -4 17 -9
22 -6 36 23 20 42 21 96 1 122 -8 10 -15 31 -15 47 0 19 -7 30 -22 37 -31 13
-62 41 -77 68 -9 17 -18 21 -33 16 -18 -5 -20 -3 -15 15 3 11 1 21 -3 21 -5 0
-28 19 -52 43 -24 23 -57 52 -75 65 -17 13 -37 37 -43 53 -10 22 -19 29 -40
29 -15 0 -44 13 -66 31 -43 34 -109 71 -121 67 -5 -1 -20 6 -35 16 -15 10 -31
15 -36 12 -6 -3 -15 1 -22 10 -7 8 -19 13 -26 10 -7 -3 -18 1 -24 9 -12 15
-36 21 -120 30 -93 11 -221 35 -298 55 -81 22 -79 22 -108 10z m-1681 -6087
c-7 -2 -19 -2 -25 0 -7 3 -2 5 12 5 14 0 19 -2 13 -5z m767 -308 c0 -8 -4 -15
-10 -15 -5 0 -10 7 -10 15 0 8 5 15 10 15 6 0 10 -7 10 -15z"/>
<path d="M2569 6732 c-1 -4 -1 -9 -1 -12 0 -3 -104 -5 -231 -6 -314 0 -512
-11 -548 -29 -15 -8 -47 -15 -71 -15 -53 0 -181 -30 -268 -63 -76 -29 -269
-74 -355 -82 -33 -4 -74 -14 -91 -23 -17 -9 -97 -52 -177 -95 -155 -84 -219
-132 -280 -209 -46 -59 -72 -70 -184 -77 -7 -1 -15 -17 -19 -36 -3 -19 -12
-39 -20 -46 -18 -15 -18 -21 5 -72 22 -48 31 -84 37 -147 10 -102 16 -126 42
-170 31 -51 66 -122 77 -160 4 -14 25 -48 46 -77 22 -29 39 -59 39 -67 0 -15
142 -199 174 -225 9 -8 16 -19 16 -27 0 -7 26 -52 58 -101 32 -48 73 -115 91
-148 19 -33 39 -67 46 -75 7 -8 15 -28 19 -45 4 -16 18 -47 32 -68 13 -20 27
-51 31 -68 3 -17 12 -33 19 -36 7 -2 18 -27 25 -55 8 -29 23 -58 36 -68 13
-10 23 -24 23 -32 0 -8 11 -25 25 -38 13 -12 30 -39 36 -59 6 -20 18 -47 25
-61 7 -14 20 -52 29 -85 12 -40 27 -69 49 -90 17 -16 37 -44 45 -61 7 -17 32
-51 57 -75 58 -57 111 -128 119 -160 3 -14 17 -38 31 -54 25 -30 27 -36 24
-102 -1 -33 2 -43 14 -43 10 0 16 -9 16 -24 0 -40 32 -125 57 -152 13 -14 27
-39 30 -55 3 -17 14 -34 25 -40 14 -8 19 -19 16 -42 -1 -20 2 -31 9 -30 8 2
10 -16 6 -59 -3 -38 -1 -63 6 -67 6 -4 14 -42 17 -85 4 -48 15 -99 29 -130 23
-53 40 -128 36 -159 -2 -12 5 -21 19 -24 18 -5 20 -11 14 -35 -3 -18 -1 -40 6
-54 11 -19 11 -26 0 -39 -11 -13 -10 -18 5 -29 16 -11 17 -22 12 -75 -6 -59
-6 -62 13 -56 25 8 26 9 -10 -101 -16 -52 -33 -117 -36 -146 -3 -29 -12 -60
-20 -69 -8 -8 -14 -26 -14 -40 -1 -32 -54 -166 -76 -190 -9 -10 -26 -19 -36
-19 -11 0 -29 -5 -40 -11 -16 -8 -18 -13 -8 -19 14 -9 16 -78 3 -91 -5 -4 -20
-10 -34 -14 l-26 -6 2 93 c2 76 -1 99 -16 124 -11 19 -19 50 -19 77 0 26 -6
51 -12 56 -80 66 -77 64 -161 66 -45 1 -98 -2 -117 -7 -19 -5 -54 -11 -76 -13
-41 -3 -137 -45 -149 -65 -3 -5 -19 -10 -36 -10 -19 0 -29 -5 -29 -15 0 -9 -9
-15 -25 -15 -16 0 -25 6 -25 15 0 22 -37 19 -49 -4 -6 -10 -25 -24 -42 -30
-17 -6 -47 -24 -66 -41 -32 -29 -61 -33 -47 -7 4 7 -9 -3 -27 -20 -19 -18 -39
-33 -43 -33 -5 0 -24 -14 -43 -30 -21 -19 -41 -29 -52 -25 -10 3 -22 -4 -31
-19 -8 -13 -50 -61 -92 -107 -42 -46 -86 -96 -98 -111 -12 -16 -27 -28 -33
-28 -7 0 -25 -11 -41 -25 -16 -14 -35 -25 -42 -25 -7 0 -23 -14 -36 -31 -13
-17 -34 -43 -48 -57 -14 -15 -25 -31 -25 -35 0 -4 -4 -11 -10 -15 -14 -10 -36
-50 -41 -76 -2 -11 -14 -29 -26 -39 -18 -15 -20 -22 -10 -37 9 -15 8 -27 -4
-55 -9 -22 -13 -49 -9 -65 5 -21 2 -31 -10 -38 -15 -8 -15 -16 -6 -67 19 -100
13 -193 -11 -179 -6 4 -9 1 -6 -7 3 -8 9 -14 14 -14 30 -2 54 -20 63 -47 6
-16 9 -34 6 -38 -8 -12 6 -41 16 -34 5 3 9 18 9 35 0 16 4 29 9 29 14 0 25
-39 22 -78 -2 -34 13 -72 29 -72 15 0 12 19 -5 36 -16 17 -20 34 -7 34 12 0
103 -137 101 -152 -5 -43 17 -54 27 -13 7 29 20 33 28 8 7 -22 3 -42 -11 -69
-10 -16 -8 -26 6 -50 24 -40 79 -94 96 -94 7 0 32 -16 56 -35 34 -29 47 -35
71 -30 16 4 35 2 41 -4 21 -17 153 -21 174 -5 25 19 53 17 69 -3 12 -17 13
-17 14 3 0 11 -9 29 -20 39 -23 21 -26 45 -6 45 7 0 30 20 49 44 20 24 48 46
62 48 35 7 31 -8 -7 -29 l-33 -18 34 -3 c43 -4 82 23 97 69 11 32 15 34 55 35
25 0 64 10 89 23 25 13 39 17 33 10 -23 -23 -14 -30 18 -14 30 16 30 17 12 37
-10 12 -13 19 -8 16 22 -13 125 55 125 82 0 6 11 10 25 10 14 0 25 5 25 10 0
6 8 10 18 10 9 0 28 9 42 20 l25 20 -22 0 c-22 0 -34 29 -13 31 46 6 80 -1 80
-16 0 -8 -6 -15 -12 -16 -7 0 3 -7 22 -16 l34 -15 -24 -18 -25 -19 33 -12 c17
-6 32 -15 32 -19 0 -10 70 -34 157 -53 69 -16 226 -15 246 1 6 5 44 8 82 6
181 -10 350 -11 369 -4 19 8 19 9 -5 9 -15 1 -31 7 -37 14 -9 11 -1 13 41 12
81 -3 87 -4 87 -20 0 -19 9 -19 30 0 11 10 44 15 113 16 l98 1 24 35 c27 41
21 74 -21 114 -22 21 -35 24 -102 23 -42 0 -86 -1 -97 -3 -11 -1 -29 0 -40 4
-15 4 -31 -4 -60 -29 -45 -40 -56 -43 -89 -21 -35 23 -123 45 -196 50 -94 6
-136 12 -149 20 -7 4 -18 1 -26 -5 -8 -6 -44 -13 -80 -16 -76 -5 -86 -9 -78
-29 5 -14 -21 -21 -51 -16 -23 5 -56 -11 -56 -26 0 -13 -8 -10 -32 14 -49 46
-90 63 -152 63 -57 0 -70 7 -57 29 7 11 11 10 19 -4 9 -17 10 -16 18 6 4 13 8
36 9 50 1 23 29 77 102 197 8 12 18 20 23 17 6 -4 10 1 10 9 0 8 -5 18 -10 21
-7 4 -5 14 5 28 8 12 15 34 15 49 0 16 9 37 20 48 11 11 20 29 20 40 0 24 27
80 38 80 5 0 13 -5 20 -12 9 -9 13 -7 19 8 17 43 89 143 100 139 22 -7 24 9 3
25 -22 16 -22 16 14 44 20 15 36 34 36 43 0 8 16 30 36 48 21 19 31 36 25 39
-12 8 0 33 36 79 13 16 23 35 23 42 0 8 11 35 25 61 14 25 22 50 19 55 -2 5 4
14 14 20 13 8 17 20 14 40 -4 25 -2 27 19 22 21 -6 22 -4 14 28 -11 53 -11 74
2 74 6 0 14 2 17 6 12 11 17 312 5 346 -9 28 -8 37 10 59 18 23 19 28 6 47 -8
13 -13 47 -13 86 1 48 -3 67 -15 76 -10 7 -14 20 -10 33 3 15 0 24 -11 28 -12
5 -14 10 -6 19 18 22 -12 125 -36 125 -16 0 -18 14 -5 39 7 12 1 34 -20 78
-16 33 -31 76 -32 94 -3 21 -12 38 -24 44 -15 8 -18 14 -10 26 7 12 5 34 -6
76 -10 33 -17 70 -17 84 0 13 -7 33 -15 43 -8 11 -13 31 -10 47 3 17 0 29 -9
32 -21 8 -8 45 18 53 11 3 30 15 42 25 20 19 21 19 39 -1 15 -17 20 -18 29 -6
8 10 42 16 108 19 55 3 111 12 127 20 26 13 28 13 24 -4 -4 -15 0 -19 21 -19
15 0 26 6 26 13 0 8 15 13 40 14 21 1 49 7 62 14 12 7 55 13 95 15 40 1 77 5
83 9 6 4 37 8 68 10 31 1 68 7 82 13 19 7 31 6 44 -4 13 -9 24 -10 37 -4 29
16 92 11 129 -9 19 -10 60 -21 91 -25 31 -4 78 -14 104 -22 33 -9 52 -11 59
-4 15 15 26 12 26 -6 0 -13 7 -15 43 -9 56 10 106 31 113 48 3 8 26 23 52 32
26 10 61 28 79 41 17 13 40 24 50 24 11 0 23 4 29 10 5 5 34 12 64 14 30 3 56
10 58 15 5 15 27 14 41 -3 10 -12 19 -12 59 1 91 31 126 72 129 152 2 62 -11
92 -61 140 -33 32 -39 34 -98 32 -263 -9 -320 -13 -373 -22 -69 -13 -125 -14
-211 -4 -41 5 -64 4 -68 -3 -4 -8 -13 -5 -26 8 -21 21 -102 28 -129 11 -8 -5
-27 -5 -45 0 -17 5 -62 12 -101 15 -38 3 -85 12 -103 20 -19 8 -38 12 -42 9
-5 -3 -11 -1 -14 4 -10 16 -72 22 -219 22 -159 0 -170 -1 -277 -43 -41 -16
-103 -32 -139 -35 -55 -5 -65 -3 -74 13 -10 18 -10 18 -17 0 -6 -17 -10 -16
-43 14 -26 22 -37 27 -37 17 0 -23 -14 -28 -49 -16 -24 9 -41 7 -78 -5 -60
-20 -107 -20 -139 0 -40 27 -130 196 -141 268 -3 16 -11 36 -19 44 -8 8 -26
37 -41 66 -14 28 -41 72 -59 97 -27 37 -34 56 -34 93 0 40 -3 46 -25 52 -20 5
-25 12 -25 38 0 18 -5 37 -11 43 -6 6 -16 20 -23 31 -32 55 -72 109 -93 125
-12 10 -35 38 -49 63 -14 24 -31 44 -38 44 -7 0 -16 30 -22 78 -11 78 -36 141
-110 272 -21 36 -44 70 -52 76 -8 6 -18 31 -22 55 -3 27 -11 43 -18 41 -15 -3
-15 12 -1 61 9 32 8 41 -5 50 -10 8 -18 35 -22 72 -3 33 -9 74 -14 90 -13 46
-5 161 12 179 9 8 18 32 21 53 8 47 33 73 116 115 35 18 77 41 95 50 20 11 66
19 130 23 54 4 108 9 120 11 11 3 57 7 101 10 44 3 92 10 106 16 17 6 39 6 61
0 40 -11 99 5 157 43 43 28 93 42 181 50 36 3 83 8 105 12 22 3 99 5 170 3
204 -3 237 -3 279 5 24 5 40 4 45 -3 4 -7 56 -13 126 -16 66 -3 138 -8 160
-11 22 -2 60 -7 85 -10 77 -10 113 -16 134 -24 12 -5 39 -3 61 3 45 13 115 2
200 -31 28 -11 59 -19 70 -17 20 3 74 10 155 19 25 3 63 10 85 16 22 6 45 13
51 14 18 5 44 71 44 113 0 48 -15 92 -31 92 -6 0 -20 11 -30 24 -16 20 -25 23
-47 17 -32 -8 -39 -8 -72 6 -14 6 -50 14 -80 17 -124 16 -357 59 -380 71 -39
20 -87 26 -285 40 -125 8 -200 17 -210 25 -17 12 -45 20 -46 12z m-987 -4996
c0 -58 -10 -74 -28 -47 -8 11 -21 18 -29 14 -11 -4 -13 -1 -9 11 3 9 12 16 19
16 7 0 18 14 25 30 16 39 22 33 22 -24z m-668 -378 c20 9 25 8 29 -9 6 -23 20
-24 41 -4 8 8 21 13 28 10 20 -8 40 -43 28 -50 -6 -4 -16 -21 -24 -39 -8 -19
-45 -58 -87 -92 -41 -33 -84 -75 -96 -92 -12 -18 -24 -28 -28 -22 -9 14 -42
13 -48 -2 -4 -10 -8 -9 -16 2 -5 8 -11 12 -13 10 -2 -3 -8 -14 -14 -25 -6 -11
-20 -21 -32 -23 -14 -2 -23 -13 -27 -33 -8 -33 -20 -36 -48 -11 -19 16 -20 16
-8 -5 6 -12 11 -29 11 -39 0 -29 -25 1 -53 64 -37 82 -41 120 -20 160 34 61
88 121 120 132 17 6 49 24 71 39 48 35 65 39 119 27 29 -6 50 -6 67 2z m-174
-1088 c0 -5 -5 -12 -11 -16 -14 -8 -33 11 -25 25 7 11 36 4 36 -9z"/>
<path d="M4231 6498 c-50 -14 -78 -36 -90 -70 -14 -40 -15 -38 12 -38 12 0 42
-7 67 -16 55 -20 164 -24 181 -7 12 12 15 76 4 93 -4 6 -16 10 -28 10 -13 0
-33 7 -45 16 -29 20 -59 24 -101 12z"/>
<path d="M1833 5904 c-30 -7 -37 -37 -19 -73 18 -34 21 -55 6 -46 -15 9 -12
-7 5 -29 8 -11 15 -32 15 -47 0 -31 49 -88 77 -90 106 -7 210 5 233 26 9 8 20
15 25 15 4 0 30 14 56 31 47 30 74 74 63 104 -6 15 -83 47 -144 60 -19 4 -53
17 -75 28 -30 15 -63 21 -130 23 -49 1 -100 0 -112 -2z"/>
<path d="M3864 5782 c9 -15 -22 -27 -93 -37 -41 -6 -55 -12 -59 -27 -4 -17
-10 -18 -46 -13 -22 4 -69 9 -102 11 -73 4 -90 -8 -80 -60 9 -49 37 -69 104
-74 47 -3 61 0 81 17 30 26 47 26 88 1 25 -15 39 -17 57 -10 14 5 35 7 48 5
12 -3 51 -7 86 -11 61 -6 64 -5 58 14 -5 14 -1 24 9 30 9 5 16 12 16 15 -3 22
1 28 14 23 10 -4 15 1 15 14 0 33 -20 66 -52 84 -35 21 -155 36 -144 18z"/>
<path d="M2947 5766 c-3 -8 -21 -17 -39 -21 -18 -4 -42 -13 -53 -21 -17 -11
-23 -10 -39 2 -27 19 -39 18 -28 -3 4 -10 7 -29 6 -43 -1 -14 4 -40 12 -59
l14 -34 73 5 c52 4 87 12 126 32 40 21 56 25 61 16 4 -7 13 -10 18 -6 8 4 7
19 -3 45 -7 22 -15 50 -17 62 -4 32 -27 40 -60 21 -25 -15 -29 -14 -46 2 -16
14 -20 15 -25 2z"/>
<path d="M2579 4958 c-1 -7 0 -23 1 -35 1 -16 -6 -24 -24 -29 -14 -3 -26 -10
-26 -15 0 -13 44 -11 58 3 9 9 12 9 13 -2 2 -38 11 -64 26 -75 9 -7 21 -27 27
-45 9 -27 20 -36 52 -47 25 -8 45 -23 52 -38 15 -33 112 -46 155 -21 16 9 36
16 46 16 10 0 28 11 41 25 13 14 29 25 37 25 14 0 17 9 14 55 -2 48 -21 85
-45 86 -27 2 -24 2 -78 -5 -67 -9 -162 -9 -189 -1 -13 4 -37 19 -53 32 -17 14
-41 29 -54 34 -13 5 -26 18 -29 29 -6 22 -22 27 -24 8z"/>
<path d="M2058 4810 c-59 -11 -68 -24 -68 -100 0 -51 4 -70 18 -82 22 -19 96
-48 122 -48 12 0 20 -7 20 -17 1 -16 2 -15 12 2 6 11 19 29 29 41 27 29 20
103 -13 146 -37 47 -75 66 -120 58z"/>
<path d="M3810 4570 c-21 -11 -90 -31 -118 -33 -13 -1 -35 -12 -49 -25 -22
-20 -25 -30 -20 -68 9 -80 42 -92 135 -49 83 38 118 84 108 139 -5 27 -25 50
-39 45 -1 0 -9 -4 -17 -9z"/>
<path d="M4442 4561 c-29 -11 -78 -22 -110 -25 -73 -7 -86 -22 -64 -77 22 -57
71 -110 105 -113 34 -3 160 18 202 34 54 20 111 90 73 90 -13 0 -2 14 13 16 5
1 12 2 16 3 3 0 -2 10 -13 22 -15 17 -16 22 -4 29 28 17 -6 32 -86 36 -62 4
-90 0 -132 -15z"/>
<path d="M4103 2784 c-7 -3 -13 -12 -13 -19 0 -7 -4 -15 -10 -17 -10 -3 27
-88 39 -88 3 0 21 9 39 20 31 19 32 19 32 0 0 -36 30 -33 44 5 5 15 9 16 15 6
5 -7 14 -10 20 -7 20 13 12 36 -16 49 -16 6 -35 20 -43 30 -15 18 -84 31 -107
21z"/>
<path d="M4482 2723 c-17 -6 -40 -54 -35 -73 3 -8 23 -30 45 -48 l41 -32 35
20 c24 15 44 19 63 15 24 -6 30 -3 38 17 5 13 11 37 13 54 3 25 -1 30 -32 41
-33 12 -140 15 -168 6z"/>
<path d="M3136 2704 c-16 -15 -13 -39 3 -30 4 3 21 -8 36 -24 16 -17 34 -30
42 -30 7 0 17 -9 23 -21 10 -17 19 -20 58 -16 26 3 66 -2 90 -10 42 -14 42
-14 79 20 22 22 33 39 28 47 -13 22 -67 39 -93 29 -35 -14 -72 -11 -72 5 0 18
-26 27 -56 20 -13 -3 -42 1 -64 10 -50 20 -55 20 -74 0z"/>
<path d="M3490 2685 c0 -8 5 -15 10 -15 6 0 10 7 10 15 0 8 -4 15 -10 15 -5 0
-10 -7 -10 -15z"/>
<path d="M2545 2657 c-77 -25 -90 -32 -91 -46 -3 -22 -4 -23 -19 -11 -13 11
-15 8 -15 -21 0 -40 7 -52 38 -68 16 -9 21 -18 17 -31 -8 -26 11 -34 28 -10
12 18 15 18 36 4 20 -15 24 -15 41 1 24 22 35 23 162 24 l106 1 22 38 c12 20
25 54 28 75 l5 39 -32 -5 c-20 -4 -50 2 -75 13 -37 15 -80 18 -141 8 -5 0 -19
1 -30 4 -11 3 -47 -4 -80 -15z"/>
<path d="M5805 1890 c-4 -6 -3 -16 3 -22 6 -6 12 -6 17 2 4 6 3 16 -3 22 -6 6
-12 6 -17 -2z"/>
<path d="M5410 1840 c0 -11 4 -20 9 -20 13 0 32 26 24 33 -13 14 -33 6 -33
-13z"/>
<path d="M3610 1838 c-25 -4 -46 -12 -48 -18 -2 -5 -16 -10 -32 -10 -16 0 -36
-7 -44 -16 -19 -18 -19 -20 -6 -44 7 -13 6 -21 -5 -30 -22 -18 -19 -50 5 -50
13 0 20 -7 20 -20 0 -26 27 -37 53 -21 17 11 22 10 29 -3 6 -11 17 -14 35 -10
19 5 30 2 42 -14 l16 -22 84 34 c47 18 90 41 96 49 6 9 30 23 53 32 47 19 48
21 27 41 -9 10 -12 25 -8 44 3 19 1 30 -6 30 -23 0 -26 2 -33 21 -7 18 -16 20
-120 18 -62 -1 -133 -6 -158 -11z"/>
<path d="M1652 1770 c0 -14 2 -19 5 -12 2 6 2 18 0 25 -3 6 -5 1 -5 -13z"/>
<path d="M3005 1770 c-16 -11 -45 -30 -62 -41 -18 -12 -33 -24 -33 -28 0 -3
24 -21 53 -39 28 -18 63 -41 77 -52 39 -32 178 -32 209 -1 21 21 22 94 2 144
-9 23 -16 27 -48 27 -21 0 -50 -6 -64 -14 -22 -11 -28 -11 -48 5 -30 24 -49
24 -86 -1z"/>
<path d="M2330 1755 c0 -6 -9 -29 -19 -51 -36 -72 -13 -146 58 -188 41 -23 80
-16 146 27 33 21 53 42 59 62 4 17 12 39 16 50 8 19 8 19 18 -5 9 -24 10 -24
17 13 9 45 -6 67 -45 67 -15 0 -49 7 -76 16 -61 19 -174 25 -174 9z"/>
<path d="M3969 1758 c-7 -24 -5 -38 4 -35 15 5 22 37 8 37 -6 0 -11 -1 -12 -2z"/>
<path d="M4102 1080 c0 -14 2 -19 5 -12 2 6 2 18 0 25 -3 6 -5 1 -5 -13z"/>
<path d="M3894 849 c-11 -18 11 -32 25 -16 9 12 8 16 -3 20 -9 4 -18 1 -22 -4z"/>
<path d="M4070 841 c0 -9 33 -41 43 -41 4 0 2 9 -5 20 -13 21 -38 35 -38 21z"/>
<path d="M3144 812 c1 -12 -7 -17 -24 -18 -14 -1 -36 -7 -49 -13 -28 -15 -60
-84 -61 -129 0 -26 5 -34 27 -43 14 -5 31 -17 38 -25 10 -14 15 -14 51 1 53
22 92 62 104 106 17 62 -4 135 -35 123 -7 -3 -22 -1 -33 5 -16 9 -19 7 -18 -7z"/>
</g>
</svg>
