<?xml version="1.0" encoding="UTF-8" standalone="no"?>
<!-- Created with Inkscape (http://www.inkscape.org/) -->

<svg
   xmlns:dc="http://purl.org/dc/elements/1.1/"
   xmlns:cc="http://creativecommons.org/ns#"
   xmlns:rdf="http://www.w3.org/1999/02/22-rdf-syntax-ns#"
   xmlns:svg="http://www.w3.org/2000/svg"
   xmlns="http://www.w3.org/2000/svg"
   xmlns:sodipodi="http://sodipodi.sourceforge.net/DTD/sodipodi-0.dtd"
   xmlns:inkscape="http://www.inkscape.org/namespaces/inkscape"
   width="32"
   height="32"
   viewBox="0 0 153.6 153.59999"
   version="1.1"
   id="svg8"
   inkscape:version="0.92.3 (2405546, 2018-03-11)"
   sodipodi:docname="frugal-script.svg">
  <defs
     id="defs2" />
  <sodipodi:namedview
     id="base"
     pagecolor="#ffffff"
     bordercolor="#666666"
     borderopacity="1.0"
     inkscape:pageopacity="0.0"
     inkscape:pageshadow="2"
     inkscape:zoom="1"
     inkscape:cx="-209.90389"
     inkscape:cy="27.649864"
     inkscape:document-units="px"
     inkscape:current-layer="layer1"
     showgrid="false"
     inkscape:window-width="1331"
     inkscape:window-height="713"
     inkscape:window-x="35"
     inkscape:window-y="27"
     inkscape:window-maximized="1"
     units="px"
     scale-x="4.8"
     fit-margin-top="0"
     fit-margin-left="0"
     fit-margin-right="0"
     fit-margin-bottom="0"
     viewbox-height="200"
     viewbox-width="10"
     viewbox-x="0" />
  <metadata
     id="metadata5">
    <rdf:RDF>
      <cc:Work
         rdf:about="">
        <dc:format>image/svg+xml</dc:format>
        <dc:type
           rdf:resource="http://purl.org/dc/dcmitype/StillImage" />
        <dc:title></dc:title>
      </cc:Work>
    </rdf:RDF>
  </metadata>
  <g
     inkscape:label="Layer 1"
     inkscape:groupmode="layer"
     id="layer1"
     transform="translate(-30.12422,-129.2106)">
    <path
       style="fill:#000000;stroke-width:0.35277778"
       d="m 45.723336,274.44794 c 0,-0.15605 -0.37896,-0.18862 -0.84215,-0.0724 -0.59544,0.14945 -0.98298,0.0131 -1.32291,-0.46542 -0.26442,-0.37224 -0.87764,-0.77863 -1.36271,-0.9031 -0.99404,-0.25506 -2.81828,-2.77007 -2.16678,-2.98724 0.49498,-0.16499 0.54059,-1.83939 0.0501,-1.83939 -0.19403,0 -0.35278,0.23813 -0.35278,0.52917 0,0.29104 -0.17726,0.52917 -0.39392,0.52917 -0.21778,0 -0.31294,-0.30969 -0.21281,-0.69259 0.0996,-0.38092 -0.0511,-0.8853 -0.33489,-1.12083 -0.28381,-0.23554 -0.76926,-0.91606 -1.07878,-1.51228 -0.35755,-0.68871 -0.62204,-0.90834 -0.7253,-0.60225 -0.0894,0.26497 0.0507,0.61353 0.31124,0.77457 0.26056,0.16103 0.35065,0.41589 0.2002,0.56634 -0.39451,0.39452 -0.9781,-0.64728 -0.79307,-1.41574 0.19071,-0.79198 -0.10016,-1.64167 -0.56196,-1.64167 -0.18635,0 -0.23804,0.3175 -0.11487,0.70556 0.12846,0.40474 0.0634,0.70555 -0.15262,0.70555 -0.30929,0 -0.53645,-0.82176 -0.31694,-1.14652 0.0328,-0.0485 -0.12838,-0.43947 -0.35816,-0.86881 -0.25376,-0.47417 -0.623386,-0.70171 -0.941546,-0.57962 -0.28809,0.11055 -0.52379,0.0159 -0.52379,-0.21035 0,-0.22623 0.14552,-0.3214 0.32338,-0.21148 0.40275,0.24892 0.42578,-2.65668 0.0319,-4.02992 -0.22534,-0.78571 -0.16528,-1.06462 0.26477,-1.22965 0.40935,-0.15708 0.45227,-0.3174 0.16254,-0.60713 -0.28974,-0.28974 -0.26352,-0.64544 0.0993,-1.34707 0.362826,-0.70164 0.389056,-1.05733 0.0993,-1.34707 -0.28973,-0.28974 -0.23838,-0.45329 0.19447,-0.61939 0.323486,-0.12413 0.588156,-0.51684 0.588156,-0.87269 0,-0.35584 0.16134,-0.7467 0.35853,-0.86857 0.19719,-0.12187 0.26477,-0.3733 0.15017,-0.55873 -0.1146,-0.18543 0.002,-0.29352 0.25883,-0.24021 0.25695,0.0533 0.4275,-0.1015 0.379,-0.34404 -0.0485,-0.24253 0.0619,-0.44097 0.24533,-0.44097 0.18344,0 0.54184,-0.43462 0.79644,-0.96582 0.2546,-0.53121 0.7792,-1.02515 1.16577,-1.09766 0.38658,-0.0725 0.82982,-0.35226 0.98499,-0.62168 0.15516,-0.26941 0.51235,-0.48984 0.79375,-0.48984 0.2814,0 0.51163,-0.13392 0.51163,-0.29759 0,-0.16368 0.99215,-1.31462 2.20478,-2.55764 1.21262,-1.24303 2.15863,-2.39859 2.10224,-2.56791 -0.0564,-0.16932 0.16433,-0.20546 0.4905,-0.0803 0.38057,0.14604 0.77208,-0.0281 1.09277,-0.48589 0.27484,-0.3924 0.66371,-0.71346 0.86414,-0.71346 0.20043,0 0.67978,-0.35718 1.06521,-0.79375 0.38543,-0.43656 0.59995,-0.59531 0.4767,-0.35277 -0.36835,0.72486 0.6779,0.49956 1.22866,-0.26459 0.2797,-0.38805 0.77401,-0.70555 1.09847,-0.70555 0.32447,0 0.68131,-0.23813 0.793,-0.52917 0.11168,-0.29104 0.45553,-0.52917 0.76411,-0.52917 0.30859,0 0.46295,0.15875 0.34303,0.35278 -0.11991,0.19403 0.11821,0.35278 0.52917,0.35278 0.41096,0 0.64908,-0.15875 0.52917,-0.35278 -0.12366,-0.20008 0.17272,-0.35278 0.68473,-0.35278 0.49652,0 0.90277,-0.12129 0.90277,-0.26955 0,-0.39783 2.80821,-1.54463 3.1958,-1.30509 0.18258,0.11285 0.53041,0.0791 0.77295,-0.0749 0.75581,-0.48006 5.20347,-0.41492 5.20347,0.0762 0,0.238 0.3175,0.51575 0.70555,0.61723 0.56171,0.14689 0.70556,0.48119 0.70556,1.63972 0,0.83918 0.18667,1.52647 0.44097,1.62356 0.30964,0.11822 0.40481,0.87147 0.31955,2.52916 -0.10391,2.02011 -0.0483,2.30011 0.38523,1.94029 0.27867,-0.23127 0.59281,-0.33436 0.69809,-0.22908 0.10528,0.10528 0.25593,-0.36121 0.33478,-1.03665 0.0788,-0.67543 0.0178,-1.15045 -0.13568,-1.0556 -0.15348,0.0949 -0.27905,0.004 -0.27905,-0.20113 0,-0.20548 0.37744,-0.3736 0.83875,-0.3736 0.46131,0 0.9896,-0.19844 1.17397,-0.44097 0.48097,-0.63268 1.51506,-3.53017 1.51506,-4.24513 0,-0.33306 0.15391,-0.60557 0.34203,-0.60557 0.18812,0 0.33168,-0.51593 0.31901,-1.14652 -0.0127,-0.63059 0.30967,-2.0842 0.7163,-3.23023 0.88473,-2.49352 0.88153,-2.45608 0.18709,-2.1896 -0.43989,0.1688 -0.49935,0.0509 -0.29231,-0.57962 0.35275,-1.07417 0.2527,-2.16474 -0.21284,-2.31992 -0.27533,-0.0918 -0.27492,-0.25816 0.001,-0.59117 0.26737,-0.32216 0.27146,-0.5334 0.0134,-0.69287 -0.20416,-0.12618 -0.27246,-0.62282 -0.15178,-1.10365 0.15884,-0.63289 0.0862,-0.84605 -0.26329,-0.77214 -0.29755,0.0629 -0.456,-0.16853 -0.41307,-0.60344 0.0848,-0.85928 -0.6304,-3.45068 -1.02919,-3.72906 -0.15859,-0.1107 -0.32507,-1.16608 -0.36995,-2.34528 -0.0476,-1.24995 -0.20408,-1.97511 -0.37529,-1.739 -0.16184,0.22318 -0.20251,-0.38689 -0.0906,-1.35889 0.15068,-1.30862 0.10531,-1.62731 -0.17582,-1.23472 -0.29534,0.41245 -0.33428,0.3233 -0.17651,-0.40419 0.13938,-0.64271 0.0384,-0.99629 -0.32425,-1.13546 -0.28962,-0.11115 -0.52662,-0.52457 -0.52662,-0.91872 0,-0.39415 -0.14066,-0.71663 -0.31258,-0.71663 -0.46688,0 -1.4513,-2.26371 -1.4513,-3.33733 0,-0.60103 -0.14154,-0.85016 -0.39427,-0.69397 -0.27317,0.16883 -0.35255,-0.19368 -0.25846,-1.1803 0.0992,-1.03971 -0.019,-1.52067 -0.43797,-1.7823 -0.31558,-0.19708 -0.66529,-0.81591 -0.77715,-1.37518 -0.11966,-0.59829 -0.93878,-1.70475 -1.98998,-2.68802 -0.98264,-0.91915 -1.78662,-1.98231 -1.78662,-2.36259 0,-0.38028 -0.20872,-0.69142 -0.46383,-0.69142 -0.52839,0 -1.65284,-2.15397 -1.65284,-3.16615 0,-0.37002 -0.14653,-0.76333 -0.32563,-0.87402 -0.1791,-0.11069 -0.4322,-0.68641 -0.56243,-1.27938 -0.13024,-0.59296 -0.45996,-1.16376 -0.7327,-1.26842 -0.27275,-0.10466 -0.4959,-0.41642 -0.4959,-0.69279 0,-0.27637 -0.23381,-0.59221 -0.51957,-0.70187 -0.28577,-0.10966 -0.62093,-0.73968 -0.74482,-1.40004 -0.12388,-0.66036 -0.36633,-1.20066 -0.53876,-1.20066 -0.17244,0 -0.31705,-0.27781 -0.32136,-0.61736 -0.004,-0.33955 -0.31829,-1.01424 -0.69771,-1.49931 -0.37943,-0.48507 -0.6934,-1.14842 -0.69772,-1.4741 -0.004,-0.3257 -0.20628,-0.80437 -0.44881,-1.06372 -0.24254,-0.25935 -0.75695,-1.10413 -1.14315,-1.87728 -0.3862,-0.77315 -0.78352,-1.48511 -0.88294,-1.58212 -0.54805,-0.5348 -2.11905,-3.09887 -2.11905,-3.45855 0,-0.2321 -0.12386,-0.42201 -0.27525,-0.42201 -0.15139,0 -0.90545,-0.87227 -1.67569,-1.93839 -0.77025,-1.06611 -1.51951,-1.93923 -1.66503,-1.94027 -0.14552,-0.001 -0.26459,-0.29621 -0.26459,-0.65593 0,-0.35972 -0.39485,-1.0801 -0.87746,-1.60085 -0.48261,-0.52073 -0.94204,-1.3029 -1.02096,-1.73813 -0.13631,-0.7517 -1.3567,-3.16211 -2.00861,-3.96724 -0.16724,-0.20654 -0.33453,-1.31779 -0.37174,-2.46944 -0.0419,-1.2953 -0.3242,-2.55132 -0.74029,-3.29322 -0.53158,-0.94783 -0.57713,-1.25831 -0.21725,-1.48073 0.25045,-0.15479 0.45952,-0.64698 0.46459,-1.09375 0.008,-0.71648 0.20569,-0.82496 1.67435,-0.91941 1.41634,-0.0911 1.78201,-0.27558 2.44741,-1.23473 1.29464,-1.86618 2.64134,-2.90312 5.86796,-4.51829 1.68975,-0.84584 3.28206,-1.73866 3.53845,-1.98403 0.2564,-0.24538 0.8914,-0.47032 1.41111,-0.49987 1.9607,-0.1115 5.85977,-0.92983 7.64772,-1.60511 2.40205,-0.9072 5.2447,-1.60691 6.30329,-1.55154 0.5564,0.0291 1.19871,-0.10236 1.42737,-0.29213 0.22866,-0.18977 0.72593,-0.34151 1.10505,-0.33721 0.37911,0.004 2.51492,-0.0908 4.74624,-0.21144 5.54743,-0.29981 9.56248,-0.30321 10.40694,-0.009 0.56781,0.19795 0.60225,0.17166 0.17639,-0.13468 -0.46745,-0.33626 -0.4654,-0.38129 0.0176,-0.38606 0.30074,-0.003 0.69793,0.14572 0.88264,0.33043 0.18471,0.18471 2.39837,0.4356 4.91926,0.55752 2.52088,0.12192 4.79562,0.39778 5.05496,0.61302 0.25935,0.21524 1.21274,0.5136 2.118664,0.66302 0.90591,0.14943 2.67899,0.45091 3.94016,0.66996 1.26118,0.21905 2.72926,0.42387 3.26239,0.45515 0.53314,0.0313 0.9697,0.18856 0.97014,0.3495 3.5e-4,0.16094 0.47719,0.18798 1.05943,0.0601 0.78981,-0.17347 1.11292,-0.091 1.27246,0.32475 0.11762,0.30649 0.41762,0.55726 0.66667,0.55726 0.71758,0 0.8726,2.49513 0.22509,3.62295 -0.30854,0.53741 -0.74751,0.90553 -0.97548,0.81805 -0.22797,-0.0875 -0.52256,-0.0509 -0.65465,0.0812 -0.13208,0.13215 -0.58417,0.26071 -1.00463,0.28568 -1.11988,0.0665 -3.88336,0.40446 -4.29225,0.52491 -0.19403,0.0572 -0.86871,-0.17092 -1.4993,-0.50684 -0.63059,-0.33591 -1.14652,-0.53839 -1.14652,-0.44993 0,0.0884 -0.50358,0.0164 -1.11907,-0.16013 -0.72844,-0.20891 -1.27418,-0.19221 -1.563444,0.0479 -0.30982,0.25712 -0.85223,0.25046 -1.79135,-0.022 -1.49485,-0.43371 -6.00636,-0.88947 -8.81014,-0.89002 -1.00029,-1.9e-4 -1.63529,-0.11698 -1.41111,-0.25953 0.24532,-0.156 0.0999,-0.26134 -0.36532,-0.26459 -0.42511,-0.003 -0.85069,0.12042 -0.94573,0.27419 -0.095,0.15378 -1.44946,0.16988 -3.00983,0.0358 -1.56036,-0.1341 -3.35729,-0.18265 -3.99316,-0.10789 -0.63587,0.0748 -2.42562,0.23673 -3.97723,0.35995 -2.25222,0.17885 -3.10587,0.41674 -4.23333,1.17969 -1.37491,0.93041 -2.7477,1.16961 -3.59272,0.62602 -0.22913,-0.1474 -0.52297,-0.0959 -0.65299,0.1145 -0.13002,0.21037 -0.7363,0.34479 -1.34729,0.29872 -0.611,-0.0461 -1.58716,0.0229 -2.16924,0.15332 -0.58208,0.13041 -2.22939,0.30731 -3.66069,0.39311 -2.00797,0.12037 -2.78096,0.3238 -3.38436,0.89067 -0.43011,0.40406 -1.16195,0.80783 -1.62632,0.89726 -1.02887,0.19814 -2.06986,1.47514 -2.08051,2.55219 -0.004,0.43656 -0.17156,0.79375 -0.37167,0.79375 -0.20011,0 -0.33694,0.51593 -0.30407,1.14653 0.0329,0.63059 0.0126,1.30527 -0.045,1.4993 -0.0576,0.19403 -0.005,0.5909 0.11638,0.88195 0.1216,0.29104 0.26586,1.24354 0.32059,2.11666 0.064,1.02071 0.25337,1.5572 0.53047,1.50264 0.31948,-0.0629 0.3423,0.14839 0.0882,0.81672 -0.43959,1.1562 -0.43595,1.66042 0.01,1.38481 0.20581,-0.12721 0.35277,0.23152 0.35277,0.86112 0,0.59354 0.12935,1.07916 0.28744,1.07916 0.15809,0 0.56233,0.51593 0.8983,1.14652 0.33597,0.63059 1.01622,1.86091 1.51165,2.73403 0.83785,1.47657 1.29407,3.19083 1.24601,4.68193 -0.0111,0.34374 0.10508,0.5476 0.25812,0.45301 0.15304,-0.0946 0.49843,0.25917 0.76752,0.78613 0.2691,0.52695 0.92481,1.33565 1.45714,1.7971 0.53233,0.46144 0.89262,0.96075 0.80065,1.10956 -0.092,0.14881 0.07,0.36159 0.35992,0.47284 0.28993,0.11126 0.52714,0.44539 0.52714,0.74253 0,0.29713 0.15875,0.54023 0.35278,0.54023 0.19403,0 0.35278,0.47127 0.35278,1.04727 0,0.81234 0.12583,0.99897 0.56096,0.832 0.42575,-0.16338 0.54388,-0.0119 0.49011,0.62843 -0.10925,1.30119 -0.0408,1.54099 0.65197,2.28461 0.35459,0.38061 0.94077,1.36305 1.30261,2.18319 0.36185,0.82015 0.78611,1.49117 0.9428,1.49117 0.15668,0 0.28488,0.29832 0.28488,0.66293 0,1.03261 1.78795,4.68472 2.71334,5.54235 0.83078,0.76994 1.80549,0.76515 3.69729,-0.0182 0.32439,-0.13432 0.9197,-0.0677 1.32292,0.14814 0.60942,0.32615 0.73312,0.2906 0.73312,-0.21072 0,-0.50878 0.13788,-0.47353 0.88194,0.22547 0.61365,0.5765 0.88359,0.67569 0.88735,0.32608 0.005,-0.42295 0.0542,-0.42542 0.31377,-0.0156 0.37229,0.58779 2.9483,0.29406 4.58595,-0.52291 1.65751,-0.82687 2.43105,-0.939 6.37316,-0.92378 2.35333,0.009 3.74035,0.1546 3.82249,0.40103 0.0709,0.21274 0.28108,0.29276 0.46703,0.17783 0.18596,-0.11493 0.55634,-0.0278 0.82308,0.19354 0.26673,0.22137 1.33134,0.41638 2.36579,0.43335 1.03446,0.017 2.10974,0.20671 2.38952,0.42163 0.27978,0.21492 0.41404,0.23202 0.29836,0.038 -0.12617,-0.21163 0.40465,-0.36616 1.32667,-0.38621 1.092094,-0.0237 1.598384,0.12655 1.749084,0.51928 0.16035,0.41786 0.27833,0.44554 0.48357,0.11345 0.21459,-0.3472 0.65392,-0.35098 2.09642,-0.018 1.36499,0.31508 2.02529,0.32085 2.61995,0.0229 0.43726,-0.21908 2.90936,-0.45848 5.49355,-0.53198 l 4.69852,-0.13365 1.03412,0.96601 c 0.85368,0.79746 1.03411,1.24907 1.03411,2.58836 0,0.89229 -0.15875,1.62235 -0.35278,1.62235 -0.19402,0 -0.35277,0.19937 -0.35277,0.44305 0,0.44145 -1.22517,1.08032 -2.73452,1.42595 -0.43683,0.10002 -0.70527,0.0379 -0.59654,-0.13801 0.10874,-0.17592 -0.0592,-0.31986 -0.37311,-0.31986 -0.31394,0 -0.49471,0.12313 -0.4017,0.27361 0.093,0.15049 -0.45325,0.26532 -1.21391,0.25518 -0.76065,-0.0101 -1.383,0.10486 -1.383,0.25555 0,0.1507 -0.3175,0.27399 -0.70556,0.27399 -0.38805,0 -0.70679,0.11907 -0.7083,0.26459 -0.003,0.28376 -1.68371,1.14652 -2.23355,1.14652 -0.18247,0 -0.52573,0.26529 -0.76281,0.58952 -0.23709,0.32423 -0.65146,0.63888 -0.92084,0.69922 -0.26938,0.0603 -0.94993,0.21496 -1.51234,0.34358 -0.72398,0.16558 -0.94967,0.11593 -0.77293,-0.17006 0.13731,-0.22216 0.0815,-0.40392 -0.12395,-0.40392 -0.20548,0 -0.3736,0.14004 -0.3736,0.3112 0,0.17117 -0.59531,0.0988 -1.32292,-0.1609 -0.7276,-0.25966 -1.82751,-0.47908 -2.444244,-0.4876 -0.61673,-0.009 -1.33111,-0.22133 -1.5875,-0.47292 -0.49545,-0.48616 -2.30773,-0.57534 -2.99368,-0.14731 -0.22596,0.14101 -0.47172,0.0737 -0.54613,-0.14948 -0.10113,-0.30341 -0.46351,-0.29751 -1.4357,0.0233 -0.71523,0.23605 -1.62041,0.32762 -2.01151,0.20349 -0.40822,-0.12957 -0.7111,-0.0661 -0.7111,0.14893 0,0.2286 -0.46981,0.29997 -1.2052,0.1831 -0.70405,-0.11189 -1.7345,0.0296 -2.47809,0.34031 -0.70009,0.29251 -1.53316,0.43197 -1.85128,0.30989 -0.38717,-0.14857 -0.49406,-0.0855 -0.32331,0.19078 0.16272,0.26328 -0.004,0.41273 -0.46023,0.41273 -0.52171,0 -0.66155,-0.16709 -0.5167,-0.61736 0.16496,-0.51282 0.13607,-0.52886 -0.17058,-0.0947 -0.26054,0.36888 -1.12666,0.54107 -2.94369,0.58523 -1.94012,0.0472 -2.55154,0.17915 -2.48123,0.53567 0.0555,0.28141 -0.10435,0.22138 -0.39452,-0.14817 -0.43201,-0.55017 -0.53847,-0.56026 -0.93025,-0.0882 -0.24333,0.2932 -0.66111,0.53309 -0.92839,0.53309 -0.26728,0 -0.48597,0.31252 -0.48597,0.69448 0,0.38197 0.19844,0.64611 0.44097,0.58699 0.24254,-0.0591 0.32191,-0.0409 0.17639,0.0405 -0.39533,0.22108 -0.31916,1.42491 0.10682,1.68818 0.20427,0.12625 0.30741,0.41342 0.2292,0.63818 -0.0782,0.22475 0.0752,1.03242 0.34083,1.79481 0.38831,1.11439 0.39525,1.44188 0.0354,1.6703 -0.32496,0.20625 -0.27845,0.2856 0.16972,0.28952 0.43667,0.004 0.61775,0.28935 0.61868,0.97554 7.1e-4,0.53358 0.3251,1.50121 0.72084,2.15031 0.53473,0.87709 0.62058,1.29936 0.33432,1.64429 -0.26664,0.32129 -0.27134,0.53447 -0.0153,0.69273 0.20345,0.12574 0.38211,0.10019 0.39702,-0.0568 0.0149,-0.15697 0.2229,0.3496 0.4622,1.12571 0.30352,0.98441 0.32199,1.48948 0.0611,1.67029 -0.24348,0.16873 -0.21181,0.26107 0.0907,0.26459 0.31277,0.004 0.38693,0.25056 0.22679,0.75513 -0.16013,0.50452 -0.11021,0.67078 0.15262,0.50835 0.38946,-0.2407 0.54837,0.79002 0.3981,2.58217 -0.0388,0.46291 0.11409,0.95577 0.33979,1.09526 0.29365,0.18149 0.23618,0.42781 -0.20208,0.86607 -0.378,0.37801 -0.47565,0.70147 -0.2551,0.84502 0.19654,0.12791 0.32011,1.10569 0.2746,2.17284 -0.0455,1.06716 -0.11373,2.89278 -0.15159,4.05695 -0.0379,1.16416 -0.14925,1.91724 -0.24752,1.67349 -0.34829,-0.86389 -0.79426,-0.0538 -0.45771,0.83141 0.4551,1.19698 0.43236,1.31046 -0.21293,1.06284 -0.42393,-0.16268 -0.50037,-0.0485 -0.32901,0.49142 0.12782,0.40273 0.0623,0.70334 -0.15332,0.70334 -0.2071,0 -0.3816,0.27781 -0.38777,0.61736 -0.006,0.33955 -0.2443,0.92551 -0.52917,1.30215 -0.28487,0.37663 -0.51794,0.95496 -0.51794,1.28517 0,0.33021 -0.24819,0.69562 -0.55153,0.81203 -0.30334,0.1164 -0.4611,0.35795 -0.35058,0.53678 0.11052,0.17882 0.001,0.41807 -0.24222,0.53165 -0.34726,0.16183 -0.3409,0.25334 0.0294,0.42284 0.33776,0.15461 0.23714,0.33322 -0.35278,0.62619 -0.45393,0.22543 -0.87506,0.75558 -0.93587,1.17812 -0.0608,0.42253 -0.41798,0.86581 -0.79375,0.98508 -0.70701,0.22439 -0.95269,0.87485 -0.33043,0.87485 0.19403,0 0.35278,0.16812 0.35278,0.3736 0,0.20548 -0.15875,0.27548 -0.35278,0.15557 -0.19403,-0.11992 -0.35278,-0.0746 -0.35278,0.10069 0,0.1753 -0.39668,0.77998 -0.88151,1.34374 -0.48484,0.56376 -0.88171,1.24289 -0.88195,1.50918 -3.2e-4,0.36522 -0.11683,0.38756 -0.47423,0.0909 -0.36797,-0.30539 -0.56496,-0.19313 -0.88194,0.50257 -0.22448,0.49268 -0.40815,1.12644 -0.40815,1.40835 0,0.28191 -0.15875,0.51257 -0.35278,0.51257 -0.19402,0 -0.35277,0.47625 -0.35277,1.05833 0,0.58209 -0.17819,1.05834 -0.39598,1.05834 -0.27358,0 -0.26023,0.16356 0.0432,0.52916 0.35968,0.43339 0.33558,0.52917 -0.1332,0.52917 -0.31479,0 -0.57236,0.21431 -0.57236,0.47624 0,0.26193 -0.49011,1.15282 -1.08915,1.97976 -0.61005,0.84216 -1.01702,1.77935 -0.92518,2.13055 0.0902,0.34486 0.0271,0.84303 -0.14017,1.10704 -0.24161,0.38134 -0.30525,0.38509 -0.30954,0.0182 -0.003,-0.25399 -0.16674,-0.36208 -0.36393,-0.24021 -0.71743,0.44339 0.1247,0.9514 1.26926,0.76566 1.12128,-0.18195 2.59673,0.54942 3.4054,1.68807 0.15567,0.21919 0.26133,0.14405 0.26458,-0.18817 0.004,-0.41316 0.31342,-0.52884 1.22282,-0.45722 0.94347,0.0743 1.17312,-0.0195 1.02058,-0.41704 -0.1544,-0.40236 0.14898,-0.51291 1.4076,-0.51291 0.88244,0 1.70414,-0.16134 1.82601,-0.35853 0.12187,-0.1972 0.40905,-0.24085 0.63818,-0.097 0.22913,0.14384 0.69154,0.21631 1.02759,0.16104 0.33604,-0.0553 0.88331,0.0519 1.21615,0.23819 0.35237,0.19719 0.93469,0.21339 1.39398,0.0388 0.44462,-0.16904 0.83754,-0.16444 0.90051,0.0105 0.0614,0.17075 0.58795,0.36124 1.17004,0.4233 0.58208,0.0621 1.2681,0.31128 1.5245,0.55382 0.64462,0.60978 0.8147,0.56842 1.93514,-0.47051 0.73302,-0.6797 1.0992,-0.81504 1.43997,-0.53223 0.25133,0.20859 0.57474,0.26157 0.71867,0.11773 0.50158,-0.50122 3.53398,-0.28005 4.11488,0.30013 0.6631,0.66226 1.10024,2.08418 0.64075,2.08418 -0.17586,0 -0.31975,0.23813 -0.31975,0.52917 0,0.53924 -0.83892,0.67173 -3.61597,0.57108 -0.7276,-0.0264 -1.32292,0.11216 -1.32292,0.30785 0,0.19569 -0.15875,0.35579 -0.35277,0.35579 -0.19403,0 -0.31309,-0.18138 -0.26459,-0.40307 0.0526,-0.24035 -0.37464,-0.39571 -1.05833,-0.38484 -1.95851,0.0311 -2.0756,0.0634 -1.51615,0.41726 0.28178,0.17826 0.63896,0.24583 0.79375,0.15017 0.15478,-0.0957 0.28143,-0.0208 0.28143,0.16642 0,0.3203 -3.78612,0.29552 -7.86051,-0.0514 -0.92779,-0.079 -1.75557,-0.0325 -1.8395,0.10328 -0.12812,0.20729 -1.30565,0.37351 -2.8236,0.39858 -1.29091,0.0213 -5.34209,-0.95034 -5.57378,-1.33685 -0.15517,-0.25883 -0.51235,-0.47061 -0.79375,-0.47061 -0.2814,0 -0.51164,-0.15875 -0.51164,-0.35278 0,-0.19402 0.15875,-0.35277 0.35278,-0.35277 0.73903,0 0.31398,-0.70692 -0.44098,-0.73341 -0.43656,-0.0153 -0.59531,-0.10792 -0.35277,-0.20579 0.81856,-0.33029 0.44845,-0.82469 -0.61736,-0.82469 -1.0999,0 -1.52871,0.69701 -0.44098,0.71677 0.56484,0.0103 0.56041,0.0543 -0.052,0.51787 -0.36813,0.27865 -0.80469,0.42299 -0.97014,0.32074 -0.16544,-0.10225 -0.3008,-7.1e-4 -0.3008,0.22543 0,0.22624 -0.23622,0.3207 -0.52494,0.20991 -0.28871,-0.11079 -0.48973,-0.0881 -0.4467,0.0505 0.16784,0.54037 -1.86876,2.16373 -2.47153,1.97005 -0.52067,-0.16731 -0.5335,-0.13866 -0.0846,0.18883 0.47037,0.34317 0.47037,0.42466 0,0.73344 -0.29104,0.19105 -0.68792,0.34737 -0.88195,0.34737 -0.19402,0 -0.11465,-0.15389 0.17639,-0.34197 0.29105,-0.18809 0.37042,-0.33936 0.17639,-0.33616 -0.19403,0.003 -0.66718,0.24347 -1.05147,0.53393 -0.44071,0.33312 -1.05943,0.44889 -1.67569,0.31353 -0.85662,-0.18814 -0.977,-0.10981 -0.977,0.63578 0,0.97173 -1.29521,1.84317 -2.33489,1.57094 -0.60101,-0.15737 -0.58872,-0.19788 0.13002,-0.42872 0.99982,-0.32111 1.05239,-0.87977 0.0583,-0.61982 -0.40448,0.10578 -0.90621,0.56716 -1.11496,1.02531 -0.20874,0.45814 -0.59218,0.83298 -0.85207,0.83298 -0.63833,0 -0.59553,0.53218 0.0986,1.22633 0.31414,0.31414 0.45116,0.68266 0.30448,0.81895 -0.14668,0.13628 -0.33755,0.0493 -0.42417,-0.19319 -0.18798,-0.52633 -1.15703,-0.59565 -1.15703,-0.0828 0,0.20885 -0.80901,0.32436 -1.94028,0.27702 -1.06715,-0.0447 -1.94028,-0.20888 -1.94028,-0.36494 z m 3.52778,-0.97585 c 0,-0.19403 -0.24749,-0.35278 -0.54998,-0.35278 -0.3025,0 -0.45188,0.15875 -0.33196,0.35278 0.11991,0.19403 0.36741,0.35278 0.54998,0.35278 0.18258,0 0.33196,-0.15875 0.33196,-0.35278 z m -2.85299,-14.55208 c -0.33702,-0.65506 -0.32686,-0.7167 0.0581,-0.35278 0.67254,0.63572 1.03096,0.54373 1.03096,-0.26458 0,-0.47037 0.23519,-0.70556 0.70556,-0.70556 0.43471,0 0.70763,-0.23698 0.71096,-0.61736 0.005,-0.5276 0.0551,-0.54042 0.34737,-0.0882 0.22798,0.35277 0.34378,0.38217 0.34738,0.0882 0.003,-0.24254 0.2303,-0.44097 0.50517,-0.44097 0.27487,0 0.57984,0.19843 0.6777,0.44097 0.12144,0.30095 0.18678,0.27258 0.20579,-0.0893 0.0304,-0.57951 1.41375,-1.95824 2.93267,-2.92295 0.53049,-0.33693 1.06364,-1.00748 1.18477,-1.49009 0.12113,-0.48261 0.36177,-0.87748 0.53477,-0.87748 0.17299,0 0.0367,-0.28699 -0.30283,-0.63775 -0.48703,-0.50312 -0.67692,-0.54035 -0.89948,-0.17639 -0.40303,0.65911 -0.95166,0.56977 -0.95801,-0.156 -0.004,-0.45724 -0.0804,-0.49914 -0.29458,-0.16154 -0.21512,0.33909 -0.64921,0.37493 -1.69497,0.13997 -1.22629,-0.27553 -1.52902,-0.20986 -2.37092,0.51431 -0.53083,0.4566 -1.2341,0.83508 -1.56283,0.84108 -0.75406,0.0138 -2.89074,2.81272 -2.89074,3.78673 0,1.02433 1.30794,3.96348 1.76376,3.96348 0.25937,0 0.24977,-0.24871 -0.0306,-0.79375 z m 20.54205,-16.8209 c -0.1794,-0.90162 -0.18132,-0.90208 -0.37983,-0.0916 -0.10972,0.44801 -0.35429,0.79329 -0.54346,0.76729 -0.18918,-0.026 -0.40821,0.14547 -0.48674,0.38106 -0.0824,0.24706 0.0269,0.32344 0.25825,0.18048 0.22423,-0.13858 0.5049,0.0228 0.63662,0.36608 0.21907,0.57086 0.25172,0.56795 0.46553,-0.0416 0.12647,-0.36054 0.14881,-1.0633 0.0496,-1.56171 z m 67.065794,30.05694 c -0.24253,-0.0846 -0.44097,-0.37876 -0.44097,-0.65363 0,-0.27488 -0.17573,-0.49977 -0.39052,-0.49977 -0.21479,0 -0.29915,0.23812 -0.18746,0.52916 0.25667,0.66889 -0.3724,0.68751 -1.02944,0.0305 -0.27427,-0.27427 -0.89793,-0.45485 -1.38591,-0.40129 -0.66507,0.073 -0.88723,-0.0671 -0.88723,-0.55964 0,-0.3683 -0.24914,-0.65705 -0.56691,-0.65705 -0.35898,0 -0.49243,-0.19408 -0.36384,-0.52916 0.12369,-0.32234 7e-4,-0.52917 -0.31504,-0.52917 -0.28495,0 -0.5181,-0.23813 -0.5181,-0.52917 0,-0.29104 -0.23812,-0.52916 -0.52916,-0.52916 -0.29104,0 -0.52917,-0.12057 -0.52917,-0.26792 0,-0.14736 -0.33411,-0.47658 -0.74247,-0.7316 -0.61493,-0.38404 -0.69694,-0.38346 -0.47741,0.003 0.21324,0.37572 0.17218,0.38081 -0.21003,0.026 -0.68311,-0.63406 -1.01915,-0.54824 -1.38132,0.35278 -0.25985,0.64647 -0.3232,0.6744 -0.34141,0.15052 -0.0304,-0.87474 -1.20838,-0.62345 -1.38055,0.2945 -0.0724,0.38583 -0.33723,0.82019 -0.5886,0.96525 -0.25481,0.14706 -0.38192,0.61533 -0.28727,1.05834 0.15739,0.73666 0.13287,0.74958 -0.33628,0.17722 -0.50623,-0.61758 -1.34718,-0.85146 -1.26844,-0.35278 0.11361,0.71954 -0.0811,1.16387 -0.4186,0.95528 -0.20726,-0.1281 -0.28928,-0.46106 -0.18227,-0.73992 0.11981,-0.31222 -0.10814,-0.619 -0.59331,-0.79848 -0.43333,-0.1603 -0.74252,-0.398 -0.68708,-0.52822 0.16848,-0.39576 -0.78317,-1.16004 -1.25047,-1.00427 -0.53965,0.17988 -0.57315,-0.34197 -0.0552,-0.85992 0.27497,-0.27496 0.0714,-0.53787 -0.7236,-0.93446 -1.02724,-0.51246 -1.09256,-0.50882 -0.9149,0.0509 0.17207,0.54216 -0.11757,0.59241 -2.87878,0.49943 -1.68856,-0.0569 -3.17014,-0.26524 -3.29241,-0.46307 -0.12226,-0.19783 -0.43645,-0.31162 -0.69819,-0.25288 -0.26173,0.0588 -0.54352,-0.20672 -0.62619,-0.58994 -0.0827,-0.38322 -0.40959,-0.8941 -0.72651,-1.13531 -0.52827,-0.40207 -0.52485,-0.43948 0.0412,-0.44977 0.33955,-0.006 0.61736,-0.24934 0.61736,-0.54038 0,-0.29104 0.15875,-0.52917 0.35278,-0.52917 0.19403,0 0.35278,0.19408 0.35278,0.43128 0,0.23719 0.24071,0.0876 0.53491,-0.33243 0.46476,-0.66354 0.67393,-0.71524 1.59487,-0.39419 0.74833,0.26087 1.19509,0.25735 1.51959,-0.012 0.33069,-0.27444 0.57186,-0.26925 0.85963,0.0185 0.29813,0.29813 0.53854,0.285 0.9441,-0.0516 0.3693,-0.30631 0.54412,-0.32418 0.54412,-0.0554 0,0.21778 0.30029,0.39597 0.66731,0.39597 0.42209,0 0.75077,0.33251 0.89442,0.90485 0.17165,0.6839 0.41787,0.87705 1.00838,0.79102 0.42971,-0.0626 0.97467,0.12553 1.21103,0.41807 0.36561,0.4525 0.43311,0.40025 0.45219,-0.35005 0.0217,-0.85193 0.0401,-0.85864 0.54039,-0.19716 0.28487,0.37664 0.51795,0.51422 0.51795,0.30573 0,-0.20848 0.3175,-0.46208 0.70555,-0.56356 0.51375,-0.13435 0.70556,-0.4812 0.70556,-1.27587 0,-0.60025 -0.11906,-1.09183 -0.26458,-1.09241 -0.14552,-7e-4 -0.26459,-0.87401 -0.26459,-1.94098 0,-1.06698 0.0529,-1.78088 0.11759,-1.58646 0.0647,0.19442 0.2411,0.35349 0.39204,0.35349 0.15094,0 0.10623,-0.73505 -0.0994,-1.63344 -0.34653,-1.51435 -0.31393,-1.68191 0.44705,-2.29813 0.67275,-0.54475 0.78433,-0.88971 0.61844,-1.91197 -0.18557,-1.1435 -0.14086,-1.22777 0.53719,-1.01256 0.59124,0.18765 0.69433,0.11675 0.51389,-0.35346 -0.13279,-0.34605 -0.0821,-0.49946 0.12303,-0.37267 0.1918,0.11854 0.34873,-0.032 0.34873,-0.33445 0,-0.30249 0.16387,-0.54999 0.36415,-0.54999 0.53282,0 1.02413,-1.51478 0.64455,-1.98727 -0.20861,-0.25969 -0.11975,-0.47706 0.25362,-0.62034 0.35325,-0.13555 0.49069,-0.43967 0.35661,-0.78908 -0.13231,-0.34481 0.0724,-0.82053 0.52025,-1.20894 0.73594,-0.63828 0.73449,-0.6404 -0.4358,-0.63581 -1.45115,0.006 -3.14955,0.61941 -3.72063,1.34444 -0.37333,0.47399 -0.43123,0.44415 -0.44097,-0.22732 -0.0147,-1.01311 -0.55567,-1.38089 -2.17108,-1.47603 -0.53445,-0.0315 -0.65541,-0.17031 -0.42261,-0.48506 0.17938,-0.24254 0.37272,-0.9966 0.42965,-1.6757 0.0569,-0.6791 0.16772,-1.30087 0.24622,-1.38171 0.22053,-0.22715 2.58552,-0.17363 2.82303,0.0639 0.11599,0.11599 0.43349,0.12546 0.70556,0.0211 0.29791,-0.11433 0.49468,0.0357 0.49468,0.37708 0,0.84448 0.59088,0.68506 0.84079,-0.22684 0.1764,-0.6437 0.27981,-0.6969 0.54703,-0.28143 0.18123,0.28178 0.23608,0.6635 0.12189,0.84826 -0.12676,0.2051 -0.0146,0.21514 0.28786,0.0258 0.27252,-0.17059 0.85267,-0.3593 1.28923,-0.41936 0.5921,-0.0814 0.79375,0.0678 0.79375,0.58761 0,0.91303 0.64824,1.2983 0.93353,0.55484 0.17824,-0.46449 0.28285,-0.48667 0.52127,-0.11056 0.40819,0.64393 0.38462,1.08804 -0.0437,0.82333 -0.19403,-0.11991 -0.35278,0.0295 -0.35278,0.33196 0,0.35749 0.3219,0.54999 0.91969,0.54999 0.64407,0 0.8628,-0.14825 0.72986,-0.49468 -0.25727,-0.67044 0.12686,-0.99243 0.65805,-0.55159 0.3055,0.25354 0.49375,0.19839 0.64207,-0.18812 0.14186,-0.36967 0.47443,-0.48042 1.02652,-0.34186 0.58159,0.14597 1.10358,-0.0609 1.81329,-0.71865 0.54814,-0.50799 1.18295,-0.85211 1.41071,-0.76472 0.22775,0.0874 0.69264,-0.0448 1.03307,-0.2937 0.34044,-0.24894 0.95393,-0.36502 1.36331,-0.25796 0.53965,0.14112 0.6685,0.072 0.46859,-0.2515 -0.20097,-0.32517 -0.0825,-0.38482 0.43683,-0.21999 0.41892,0.13297 0.91808,0.0206 1.2113,-0.27258 0.81537,-0.81538 3.82054,-1.07194 5.04954,-0.43111 0.57885,0.30183 1.33963,0.54976 1.69063,0.55095 0.351,0.001 0.54295,0.15626 0.42656,0.34459 -0.1164,0.18833 0.0214,0.79303 0.3062,1.34378 0.33329,0.64452 0.40416,1.1825 0.19886,1.50966 -0.17544,0.27957 -0.23252,0.78612 -0.12686,1.12567 0.12668,0.40709 0.004,0.61736 -0.36083,0.61736 -0.30412,0 -0.55294,0.2113 -0.55294,0.46956 0,0.25825 -0.35719,0.64431 -0.79375,0.8579 -1.10906,0.54262 -3.08681,0.74019 -3.08681,0.30836 0,-0.19726 -0.50202,0.15483 -1.1156,0.78242 -0.61359,0.62759 -1.32796,1.05958 -1.5875,0.95999 -0.262,-0.10055 -0.4719,0.0494 -0.4719,0.33699 0,0.31917 -0.34289,0.5181 -0.89301,0.5181 -0.49116,0 -0.97766,0.22058 -1.08112,0.49018 -0.10875,0.2834 -0.47612,0.41486 -0.87087,0.31163 -0.37553,-0.0982 -0.68277,-0.0235 -0.68277,0.16603 0,0.18952 -0.55707,0.93524 -1.23793,1.65716 -0.68085,0.72191 -1.14704,1.45962 -1.03597,1.63933 0.11107,0.17972 -0.0203,0.41205 -0.29196,0.51629 -0.44645,0.17132 -0.51234,1.68414 -0.22969,5.27355 0.0153,0.19402 -0.0604,0.92893 -0.16822,1.63312 -0.18568,1.21285 -0.13597,1.29357 0.94291,1.53145 1.66777,0.36773 3.43242,0.40621 3.43218,0.0749 -1.2e-4,-0.1586 0.32843,-0.18405 0.7301,-0.0566 0.54739,0.17374 0.77683,0.0539 0.91607,-0.47856 0.17461,-0.6677 0.98955,-0.78604 1.83113,-0.26591 0.16493,0.10193 0.47843,-0.20657 0.69667,-0.68556 0.35159,-0.77165 1.18938,-1.09958 2.30054,-0.90048 0.87754,0.15724 1.55694,-0.39234 1.39594,-1.1292 -0.13767,-0.63002 -0.0975,-0.67892 0.20722,-0.25231 0.33512,0.46916 0.53674,0.27595 0.43772,-0.41948 -0.019,-0.13369 0.26547,-0.33832 0.63222,-0.45472 0.36676,-0.11641 0.92282,-0.60233 1.23569,-1.07983 0.31288,-0.47751 0.80333,-0.86819 1.0899,-0.86819 0.28656,0 0.52103,-0.23813 0.52103,-0.52917 0,-0.73054 0.61189,-0.66648 0.84236,0.0882 0.1037,0.33955 0.10815,0.022 0.01,-0.70555 -0.13978,-1.03506 -0.06,-1.32292 0.3665,-1.32292 0.29983,0 0.54515,-0.16812 0.54515,-0.3736 0,-0.20548 0.15875,-0.27548 0.35277,-0.15556 0.19403,0.11991 0.35278,-0.0295 0.35278,-0.33196 0,-0.33357 0.31234,-0.55212 0.79375,-0.55539 0.4604,-0.003 0.62887,-0.11425 0.40116,-0.26458 -0.50594,-0.33401 -0.35445,-2.05116 0.17069,-1.93488 0.21906,0.0485 0.39829,-0.23868 0.39829,-0.63818 0,-0.42478 0.15627,-0.6298 0.37637,-0.49376 0.20701,0.12793 0.34695,0.0182 0.31098,-0.24377 -0.036,-0.262 -0.0442,-0.95262 -0.0182,-1.53471 0.0372,-0.83533 0.12265,-0.94683 0.40529,-0.52916 0.26568,0.3926 0.29994,0.2788 0.13274,-0.44098 -0.14178,-0.61036 -0.0803,-0.97013 0.16568,-0.97013 0.21506,0 0.39102,-0.38751 0.39102,-0.86113 0,-0.47362 0.1737,-0.96848 0.386,-1.09968 0.2123,-0.13121 0.31369,-0.61683 0.22531,-1.07916 -0.10563,-0.55264 0.004,-0.84059 0.31957,-0.84059 0.26413,0 0.48024,-0.3175 0.48024,-0.70556 0,-0.39197 -0.23518,-0.70555 -0.52916,-0.70555 -0.41158,0 -0.37238,-0.15679 0.17639,-0.70556 0.76079,-0.76079 0.88684,-1.25743 0.39611,-1.56071 -0.17019,-0.10519 -0.19926,-0.70987 -0.0646,-1.34374 0.1391,-0.65468 0.046,-1.9144 -0.21553,-2.91638 -0.25322,-0.97014 -0.46228,-2.20045 -0.46458,-2.73403 -0.002,-0.53357 -0.14557,-0.97014 -0.31837,-0.97014 -0.28987,0 -0.61945,-1.36379 -0.85254,-3.52777 -0.0523,-0.48507 -0.28736,-0.84226 -0.52247,-0.79375 -0.23512,0.0485 -0.42748,-0.21994 -0.42748,-0.59654 0,-0.37661 -0.15182,-0.77857 -0.33737,-0.89325 -0.18555,-0.11468 -0.25411,-0.42549 -0.15234,-0.69069 0.10177,-0.2652 0.0155,-0.58698 -0.19179,-0.71508 -0.20726,-0.12809 -0.37683,-0.546 -0.37683,-0.9287 0,-0.38269 -0.237,-0.78675 -0.52666,-0.8979 -0.36739,-0.14098 -0.45851,-0.47359 -0.30132,-1.09988 0.16744,-0.66717 0.1118,-0.82762 -0.21663,-0.62464 -0.33634,0.20787 -0.38567,-0.0114 -0.20643,-0.91752 0.17217,-0.87042 0.13771,-1.04834 -0.12811,-0.6615 -0.29191,0.42481 -0.41039,0.29707 -0.60073,-0.64768 -0.13041,-0.64727 -0.45266,-1.25956 -0.71612,-1.36066 -0.26345,-0.1011 -0.479,-0.48433 -0.479,-0.85162 0,-0.3673 -0.16812,-0.66782 -0.3736,-0.66782 -0.20548,0 -0.27837,-0.15408 -0.16197,-0.34241 0.11639,-0.18833 -0.0643,-0.86302 -0.40158,-1.49931 -0.33726,-0.63629 -0.63844,-1.31564 -0.66928,-1.50967 -0.17418,-1.09576 -0.65341,-1.89542 -1.22558,-2.04505 -0.45759,-0.11966 -0.59343,-0.38675 -0.45871,-0.90194 0.11023,-0.4215 -0.1987,-1.51478 -0.72838,-2.57771 -0.50589,-1.01517 -0.91979,-2.05273 -0.91979,-2.30567 0,-0.25295 -0.1513,-0.4599 -0.33623,-0.4599 -0.18492,0 -0.59988,-0.55563 -0.92214,-1.23472 -0.32225,-0.6791 -0.72657,-1.23473 -0.89849,-1.23473 -0.17192,0 -0.31258,-0.55562 -0.31258,-1.23472 0,-0.86234 -0.15959,-1.23472 -0.52917,-1.23472 -0.29104,0 -0.52917,-0.28716 -0.52917,-0.63813 0,-0.35097 -0.23307,-0.94628 -0.51795,-1.32292 -0.28486,-0.37663 -0.52299,-0.96758 -0.52916,-1.31322 -0.006,-0.34564 -0.24935,-0.71981 -0.54039,-0.83149 -0.29104,-0.11169 -0.52916,-0.50358 -0.52916,-0.87087 0,-0.3673 -0.17009,-0.66782 -0.37798,-0.66782 -0.55575,0 -1.38591,-0.92588 -1.38591,-1.5457 0,-0.29577 -0.14865,-0.90242 -0.33032,-1.34811 -0.18168,-0.4457 -0.42949,-1.41893 -0.55069,-2.16275 -0.16788,-1.0303 -0.35063,-1.30242 -0.76729,-1.14253 -0.38746,0.14868 -0.48404,0.0544 -0.33126,-0.32329 0.11862,-0.29325 0.31002,-0.81098 0.42533,-1.15053 0.17256,-0.50809 0.1447,-0.52545 -0.15741,-0.0981 -0.31779,0.44956 -0.3975,0.43999 -0.5937,-0.0713 -0.12465,-0.32482 -0.12382,-0.75693 0.002,-0.96025 0.12566,-0.20332 0.0497,-0.36967 -0.1689,-0.36967 -0.24614,0 -0.3057,-0.28882 -0.1565,-0.75892 0.18412,-0.58011 0.11833,-0.7119 -0.27921,-0.55934 -0.39919,0.15318 -0.49226,-0.0394 -0.40038,-0.82858 0.0659,-0.56549 -0.0428,-1.02816 -0.24157,-1.02816 -0.19874,0 -0.32108,-0.19844 -0.27187,-0.44097 0.0492,-0.24253 -0.10816,-0.79816 -0.34972,-1.23472 -0.24157,-0.43656 -0.33599,-0.79375 -0.20983,-0.79375 0.12615,0 7e-4,-0.35719 -0.27855,-0.79375 -0.71344,-1.11493 -1.05162,-2.11169 -0.62752,-1.84959 0.1918,0.11854 0.34874,0.0644 0.34874,-0.12032 0,-0.18472 -0.23813,-0.42723 -0.52917,-0.53892 -0.29796,-0.11434 -0.52917,-0.63947 -0.52917,-1.20191 0,-0.54936 -0.14378,-1.14966 -0.31952,-1.33398 -0.17575,-0.18433 -0.39754,-1.2517 -0.49287,-2.37193 -0.0953,-1.12023 -0.32136,-2.23148 -0.50227,-2.46944 -0.19969,-0.26266 -0.20784,-1.47227 -0.0207,-3.0785 0.16951,-1.4552 0.34496,-3.23199 0.38989,-3.94841 0.0449,-0.71642 0.19669,-1.41757 0.33722,-1.5581 0.14054,-0.14054 0.25553,-0.75823 0.25553,-1.37265 0,-0.61442 0.11042,-1.22756 0.24539,-1.36253 0.29561,-0.2956 0.30089,-0.31686 1.03972,-4.18086 0.32327,-1.69067 0.722,-2.99099 0.88605,-2.8896 0.16406,0.10139 0.29828,0.0256 0.29828,-0.16843 0,-0.19403 -0.15875,-0.45089 -0.35278,-0.5708 -0.55778,-0.34473 -0.41642,-0.68646 0.44098,-1.06608 0.46839,-0.20738 0.75126,-0.60317 0.69009,-0.96559 -0.066,-0.39109 0.12619,-0.61824 0.52916,-0.62539 0.72104,-0.0128 1.86755,-0.79056 1.86755,-1.26693 0,-0.56043 3.06869,-1.99341 5.82083,-2.71814 4.10698,-1.08152 4.42551,-1.13879 8.11389,-1.45892 3.12597,-0.27132 3.63219,-0.35243 3.90555,-0.62579 0.12198,-0.12199 0.56314,-0.0823 0.98034,0.0882 1.12157,0.4584 6.52799,1.45673 8.25508,1.52434 0.91154,0.0357 1.4993,0.22723 1.4993,0.4886 1e-5,0.2372 0.23721,0.33888 0.52918,0.22684 0.29128,-0.11178 0.52916,-0.0105 0.52916,0.22521 0,0.24042 0.23795,0.33695 0.54252,0.22007 0.30288,-0.11622 0.62744,0.0131 0.73475,0.29276 0.10573,0.27552 0.40633,0.41879 0.668,0.31838 0.44474,-0.17066 2.67469,1.14112 2.93483,1.72642 0.0647,0.14552 0.50124,0.26459 0.97013,0.26459 0.57934,0 0.85255,0.19942 0.85255,0.62227 0,0.34545 0.62775,1.01025 1.41111,1.49439 0.77611,0.47967 1.41111,1.07277 1.41111,1.31801 0,0.24523 0.23315,0.44588 0.5181,0.44588 0.31732,0 0.43881,0.20662 0.3135,0.53317 -0.1464,0.38151 -0.0429,0.47112 0.36385,0.31503 0.31264,-0.11997 0.56844,-0.0723 0.56844,0.10587 0,0.54838 1.43307,1.89622 1.78492,1.67877 0.18246,-0.11277 0.33175,0.19184 0.33175,0.67691 0,0.48507 0.15875,0.98006 0.35278,1.09997 0.46452,0.2871 0.45066,1.80376 -0.0246,2.69181 -0.28191,0.52675 -0.493,0.60919 -0.83441,0.32584 -0.32913,-0.27315 -0.70343,-0.25146 -1.33756,0.0775 -1.02834,0.53351 -3.0951,2.52823 -3.0951,2.98721 0,0.17371 -0.5555,0.93999 -1.23444,1.70284 -0.67895,0.76285 -1.23457,1.57985 -1.23472,1.81556 -1.6e-4,0.23571 -0.3162,0.59763 -0.70233,0.80428 -0.38612,0.20665 -0.68645,0.49005 -0.6674,0.62977 0.10411,0.76348 -0.55999,1.84155 -1.13442,1.84155 -0.40102,0 -0.74108,0.33225 -0.87137,0.85138 -0.12729,0.50718 -0.55787,0.93776 -1.06505,1.06505 -0.46826,0.11752 -0.85138,0.41374 -0.85138,0.65825 0,0.24451 -0.3175,0.6734 -0.70555,0.9531 -0.38806,0.2797 -0.70556,0.70225 -0.70556,0.939 0,0.23676 -0.18328,0.54374 -0.40728,0.68219 -0.27647,0.17086 -0.31137,0.0926 -0.10867,-0.24376 0.25432,-0.42199 0.21008,-0.42367 -0.29827,-0.0113 -0.32829,0.2663 -0.59689,0.69788 -0.59689,0.95907 0,0.27113 -0.22071,0.3902 -0.51439,0.27751 -0.34309,-0.13166 -0.59079,0.10699 -0.7438,0.71662 -0.16687,0.66479 -0.45949,0.91403 -1.07312,0.91403 -0.46404,0 -0.8437,0.16812 -0.8437,0.3736 0,0.20548 -0.16718,0.27028 -0.3715,0.144 -0.20433,-0.12628 -0.65951,0.10247 -1.01152,0.50835 -0.35201,0.40587 -0.88605,0.73794 -1.18675,0.73794 -0.30071,0 -1.26589,0.30827 -2.14486,0.68504 -0.87896,0.37676 -1.924,0.69426 -2.3223,0.70555 -0.3983,0.0113 -1.07648,0.0278 -1.50706,0.0366 -0.43059,0.009 -0.90441,0.20729 -1.05294,0.44097 -0.20027,0.31508 -0.27144,0.29976 -0.27545,-0.0593 -0.004,-0.39034 -0.10795,-0.39906 -0.53457,-0.045 -0.3656,0.30343 -0.52916,0.31678 -0.52916,0.0432 0,-0.21779 -0.30813,-0.39598 -0.68474,-0.39598 -0.3766,0 -0.78445,-0.16133 -0.90632,-0.35853 -0.12187,-0.19719 -0.35273,-0.27748 -0.51302,-0.17841 -0.43092,0.26632 -0.74793,-0.80904 -0.51367,-1.74243 0.13533,-0.53917 0.72105,-1.02549 1.74238,-1.44667 0.84619,-0.34896 1.50838,-0.80429 1.47153,-1.01185 -0.0368,-0.20756 0.11621,-0.34277 0.34014,-0.30047 0.22393,0.0423 0.60055,-0.15613 0.83694,-0.44097 0.2364,-0.28484 0.73286,-0.51789 1.10325,-0.51789 0.37038,0 0.77423,-0.27781 0.89743,-0.61736 0.31454,-0.8669 2.31498,-2.89539 2.65071,-2.6879 0.25488,0.15753 0.42162,-0.37215 0.31992,-1.01627 -0.023,-0.14552 0.34788,-0.26458 0.82413,-0.26458 0.47625,0 1.2395,-0.35719 1.69611,-0.79375 2.08718,-1.99553 3.35133,-2.90226 3.89921,-2.79675 0.33394,0.0643 0.59433,-0.10696 0.59433,-0.39093 0,-0.27796 0.54752,-1.19729 1.21672,-2.04295 0.66919,-0.84566 1.14509,-1.60918 1.05756,-1.69671 -0.0875,-0.0875 0.0569,-0.41016 0.32103,-0.71695 0.59476,-0.69089 0.95816,-2.08777 0.60061,-2.30875 -0.14609,-0.0903 -0.29842,-0.68576 -0.33853,-1.32327 -0.12245,-1.94668 -0.14311,-2.04105 -0.44674,-2.04105 -0.16169,0 -0.29641,-0.27781 -0.29938,-0.61736 -0.004,-0.48827 -0.0698,-0.5157 -0.31334,-0.13119 -0.42557,0.67189 -1.14923,0.14089 -1.02106,-0.74922 0.0578,-0.40133 -0.0934,-0.79737 -0.3359,-0.88009 -0.24612,-0.0839 -0.44336,0.1354 -0.44637,0.49638 -0.004,0.51592 -0.0691,0.54618 -0.32014,0.14958 -0.1731,-0.27344 -0.23307,-0.71001 -0.13324,-0.97014 0.0998,-0.26013 0.019,-0.47296 -0.17964,-0.47296 -0.19861,0 -0.44119,0.19844 -0.53905,0.44097 -0.1219,0.3021 -0.18758,0.27433 -0.20854,-0.0882 -0.0337,-0.58223 -1.70848,-1.50251 -2.19132,-1.2041 -0.16678,0.10307 -0.30323,0.0137 -0.30323,-0.19861 0,-0.26645 -0.24584,-0.25282 -0.79375,0.044 -0.43656,0.23651 -1.34937,0.39342 -2.02847,0.3487 -3.59983,-0.23708 -6.01291,-0.1868 -6.14561,0.12804 -0.0818,0.19403 -0.16122,0.0935 -0.17654,-0.22345 -0.0155,-0.32098 -0.4138,-0.65002 -0.89912,-0.74279 -0.47919,-0.0916 -0.78733,-0.0307 -0.68473,0.13526 0.10259,0.166 -0.061,0.30182 -0.36345,0.30182 -0.3025,0 -0.54999,-0.1905 -0.54999,-0.42334 0,-0.31287 -0.10326,-0.32007 -0.39577,-0.0276 -0.21767,0.21767 -0.61129,0.31306 -0.87471,0.21197 -0.4942,-0.18964 -3.6774,1.17755 -4.06063,1.74404 -0.11871,0.17547 -0.31715,0.30548 -0.44097,0.28891 -0.70739,-0.0947 -0.9307,0.0251 -0.9307,0.49903 0,0.29104 -0.11906,0.49653 -0.26458,0.45664 -0.14552,-0.0399 -0.76927,0.19649 -1.38611,0.52529 -1.12566,0.60003 -1.7584,1.70529 -1.35237,2.36226 0.12102,0.19582 -0.003,0.26731 -0.27954,0.16117 -0.36761,-0.14106 -0.55655,0.24364 -0.72568,1.47757 -0.12577,0.91756 -0.50566,1.97429 -0.84422,2.3483 -0.5099,0.56329 -0.62501,1.44362 -0.67066,5.12867 -0.0412,3.32375 0.0703,4.62774 0.44097,5.1569 0.27284,0.38954 0.49608,1.06043 0.49608,1.49088 0,0.43044 0.15182,0.87645 0.33737,0.99113 0.18555,0.11468 0.25265,0.42928 0.14911,0.6991 -0.10354,0.26983 0.13929,0.81814 0.53961,1.21846 0.40033,0.40033 0.82977,1.36511 0.95431,2.14395 0.13335,0.83391 0.42035,1.41607 0.69811,1.41607 0.68807,0 1.31886,1.29695 0.75825,1.55904 -0.34156,0.15969 -0.33591,0.25189 0.0256,0.41823 0.52709,0.24253 1.27323,1.85713 1.16484,2.52065 -0.0396,0.24253 0.0788,0.44097 0.26317,0.44097 0.18437,0 0.25219,0.3175 0.15071,0.70556 -0.10315,0.39447 -0.0108,0.70555 0.20942,0.70555 0.21666,0 0.39392,0.3175 0.39392,0.70556 0,0.38805 0.23314,0.70555 0.5181,0.70555 0.29894,0 0.43799,0.20874 0.32872,0.49349 -0.10415,0.27141 -0.0198,0.59828 0.18746,0.72637 0.20726,0.12809 0.37683,0.68944 0.37683,1.24744 0,0.558 0.17278,1.46145 0.38396,2.00765 0.21118,0.54621 0.44409,1.44804 0.51757,2.00407 0.0735,0.55603 0.35093,1.19103 0.61653,1.41111 0.26561,0.22008 0.67407,1.07484 0.9077,1.89946 0.23898,0.84347 0.63984,1.4993 0.91643,1.4993 0.33188,0 0.43968,0.28659 0.33172,0.88195 -0.0897,0.49446 0.007,0.88194 0.22057,0.88194 0.20927,0 0.27585,0.16931 0.14796,0.37625 -0.1279,0.20694 0.0284,0.56705 0.34731,0.80025 0.31892,0.23319 0.63307,0.89732 0.6981,1.47583 0.0829,0.73736 0.28757,1.02123 0.68457,0.94947 0.38356,-0.0693 0.49903,0.073 0.35781,0.44097 -0.12851,0.33492 -0.0128,0.54334 0.3017,0.54334 0.34398,0 0.48999,0.33967 0.44817,1.0426 -0.0341,0.57343 0.0684,1.24812 0.22771,1.49931 0.22364,0.35254 0.29095,0.35613 0.29512,0.0157 0.003,-0.24254 0.14214,-0.44097 0.30926,-0.44097 0.16712,0 0.23098,0.38125 0.1419,0.84722 -0.11676,0.6108 0.025,0.90658 0.50822,1.05993 0.48367,0.15351 0.68014,0.56429 0.70598,1.47607 0.0221,0.7801 0.31004,1.51885 0.7527,1.93125 0.40358,0.37599 0.82117,1.36335 0.95552,2.25921 0.13125,0.87524 0.3796,1.50421 0.55189,1.39773 0.1723,-0.10648 0.31101,0.0142 0.30824,0.26818 -0.003,0.25399 0.4593,1.4143 1.02681,2.57846 2.17399,4.45963 3.31261,7.48859 3.00321,7.9892 -0.10234,0.16559 -0.0372,0.30108 0.14472,0.30108 0.41089,0 1.01728,1.5039 1.32982,3.29809 0.16405,0.94175 0.32893,1.21199 0.5381,0.88195 0.21647,-0.3416 0.31488,-0.22701 0.34874,0.40607 0.026,0.48507 0.0308,0.9936 0.0109,1.13008 -0.02,0.13647 0.30945,1.00959 0.73201,1.94027 0.42257,0.93068 0.78315,1.93028 0.80129,2.22132 0.12948,2.07709 0.68511,4.28166 1.14383,4.53837 0.39191,0.21933 0.42668,0.37367 0.12601,0.5595 -0.30033,0.18561 -0.3095,0.38399 -0.0331,0.71698 0.21014,0.25321 0.41629,1.25072 0.4581,2.21669 0.0584,1.34939 0.1916,1.71196 0.57487,1.56493 0.34545,-0.13252 0.40963,-0.047 0.20874,0.27803 -0.15956,0.25817 -0.2566,1.398 -0.21564,2.53295 0.041,1.13496 -0.053,2.26039 -0.20874,2.50097 -0.27647,0.42702 -1.14003,4.05877 -1.2574,5.28811 -0.0324,0.33954 -0.26304,0.61736 -0.51251,0.61736 -0.24946,0 -0.45357,0.30961 -0.45357,0.68802 0,0.37842 -0.24207,0.8235 -0.53793,0.98907 -0.29587,0.16557 -0.57368,0.80815 -0.61736,1.42794 -0.0446,0.63317 -0.27558,1.12721 -0.52713,1.1276 -0.29443,3.5e-4 -0.37604,0.28619 -0.23838,0.83465 0.16191,0.64512 0.0436,0.87728 -0.52245,1.0253 -0.46205,0.12083 -0.73175,0.47875 -0.73175,0.97109 0,0.60604 -0.15716,0.73863 -0.70556,0.59522 -0.45856,-0.11992 -0.70555,-0.0108 -0.70555,0.31163 0,0.27288 -0.19844,0.49615 -0.44097,0.49615 -0.47788,10e-6 -2.38125,2.21596 -2.38125,2.7723 0,0.18731 -0.39246,0.29748 -0.87212,0.24483 -0.47966,-0.0527 -0.79212,0.0337 -0.69435,0.19189 0.27884,0.45118 -1.34608,2.12346 -1.86852,1.92298 -0.27488,-0.10547 -0.60887,0.19045 -0.80898,0.71679 -0.18745,0.49304 -0.4889,0.80492 -0.66989,0.69306 -0.18098,-0.11185 -0.4231,-0.0512 -0.53805,0.13478 -0.11494,0.18598 -0.94003,0.44778 -1.83354,0.58177 -1.12687,0.16899 -1.67471,0.43542 -1.78828,0.86971 -0.17818,0.68138 -1.50961,1.21375 -1.50961,0.60362 0,-0.20593 -0.27781,-0.13582 -0.61736,0.1558 -1.01983,0.87588 -2.10807,1.18967 -4.93889,1.42409 -0.24253,0.0201 -0.44097,0.18602 -0.44097,0.36874 0,0.18273 -0.38539,0.2355 -0.85643,0.11728 -0.56961,-0.14296 -1.06218,-0.009 -1.47079,0.39942 -0.59542,0.59542 -1.97476,0.85422 -2.87625,0.53967 z m 0.79375,-0.44785 c 0.11992,-0.19403 0.0499,-0.35278 -0.15557,-0.35278 -0.20548,0 -0.3736,0.15875 -0.3736,0.35278 0,0.19403 0.07,0.35278 0.15557,0.35278 0.0856,0 0.25368,-0.15875 0.3736,-0.35278 z m 1.5875,0 c 0,-0.19403 -0.15875,-0.35278 -0.35278,-0.35278 -0.19402,0 -0.35277,0.15875 -0.35277,0.35278 0,0.19403 0.15875,0.35278 0.35277,0.35278 0.19403,0 0.35278,-0.15875 0.35278,-0.35278 z m -17.73443,-6.56314 c -0.11722,-0.11722 -0.4215,-0.12975 -0.67616,-0.0278 -0.28142,0.11261 -0.19783,0.19621 0.21314,0.21313 0.37188,0.0153 0.58024,-0.0681 0.46302,-0.18528 z m -20.365564,1.6654 c 0,-0.1714 -0.33974,-0.40048 -0.75497,-0.50906 -0.64271,-0.16808 -0.72534,-0.3801 -0.55565,-1.42579 0.25239,-1.5553 1.35689,-2.70651 2.34802,-2.44732 0.59725,0.15618 0.696234,0.0676 0.52207,-0.46715 -0.16444,-0.50492 -0.13261,-0.54425 0.13554,-0.1675 0.192754,0.2708 0.602984,0.39547 0.911624,0.27703 0.38842,-0.14905 0.61204,0.0252 0.72637,0.56596 0.38361,1.81436 -0.20865,3.22473 -1.657734,3.94763 -1.22882,0.61301 -1.67527,0.67329 -1.67527,0.2262 z m 21.219264,-4.86244 c -0.2621,-0.28423 -0.40379,-0.58956 -0.31485,-0.6785 0.0889,-0.0889 0.3657,0.0841 0.61503,0.38451 0.58884,0.70952 0.32305,0.96983 -0.30018,0.29399 z m -4.10955,-0.47037 c -0.11991,-0.19403 0.0388,-0.35278 0.35278,-0.35278 0.31395,0 0.4727,0.15875 0.35278,0.35278 -0.11992,0.19402 -0.27867,0.35277 -0.35278,0.35277 -0.0741,0 -0.23286,-0.15875 -0.35278,-0.35277 z m 4.43758,-5.14468 c 0.0169,-0.41097 0.10052,-0.49456 0.21313,-0.21314 0.10191,0.25466 0.0894,0.55894 -0.0278,0.67616 -0.11723,0.11723 -0.20061,-0.0911 -0.18529,-0.46302 z m -37.023094,-9.57456 c -0.86592,-0.82752 -1.04213,-1.24464 -0.92309,-2.18517 0.0809,-0.63934 0.29776,-1.34396 0.48189,-1.56582 0.3133,-0.37749 0.39478,-0.61531 0.39478,-1.15213 0,-0.12078 0.20376,-0.0505 0.4528,0.1562 0.25944,0.21531 0.65643,0.24995 0.92961,0.0811 0.27867,-0.17223 0.9654,-0.0905 1.65253,0.19656 0.64666,0.27019 1.56834,0.49125 2.04819,0.49125 1.11434,0 1.31088,0.3421 0.92941,1.61773 -0.29501,0.98651 -0.3089,0.99242 -0.34318,0.14616 -0.0284,-0.70144 -0.10517,-0.77364 -0.37504,-0.35277 -0.18663,0.29104 -0.26711,0.76729 -0.17886,1.05833 0.17611,0.58075 -1.66836,1.94639 -3.1214,2.31108 -0.66903,0.16792 -1.1316,-0.0227 -1.94764,-0.80254 z m 14.66664,-1.47263 c -0.23405,-0.31269 -1.02096,-0.88171 -1.74868,-1.2645 -1.23395,-0.64906 -1.27177,-0.71496 -0.56117,-0.97783 0.41907,-0.15502 0.9351,-0.49671 1.14673,-0.7593 0.64137,-0.79581 2.21614,-1.00197 2.47623,-0.32417 0.17129,0.44637 0.32267,0.48772 0.6365,0.17388 0.4564,-0.4564 2.259624,-0.56271 2.496564,-0.14719 0.38578,0.67652 0.55055,2.78805 0.2542,3.25735 -0.48491,0.76789 -4.132584,0.8003 -4.700374,0.0418 z m 13.156374,0.1894 c 0,-0.32204 -0.29054,-0.42471 -0.88194,-0.31165 -0.55692,0.10646 -0.88195,0.008 -0.88195,-0.26851 0,-0.34269 -0.11095,-0.34501 -0.51371,-0.0108 -0.61125,0.50729 -1.37511,0.14168 -1.1158,-0.53406 0.11741,-0.30596 1.9e-4,-0.40557 -0.32873,-0.27935 -0.59174,0.22707 -0.71687,-0.76891 -0.14129,-1.12463 0.25745,-0.15911 0.25613,-0.36571 -0.004,-0.67957 -0.47533,-0.57274 0.44032,-1.42248 1.21322,-1.12589 0.3077,0.11807 0.49426,0.0238 0.44546,-0.22512 -0.0587,-0.29955 0.87037,-0.48492 3.09104,-0.61671 3.35332,-0.19901 4.17606,-0.11332 3.85771,0.40178 -0.10735,0.1737 0.0708,0.31582 0.39593,0.31582 0.44029,0 0.54809,0.22502 0.42252,0.88194 -0.0927,0.48507 -0.0319,0.88195 0.13526,0.88195 0.78162,0 0.18308,0.64151 -0.77786,0.8337 -0.59494,0.11899 -0.98723,0.36921 -0.87176,0.55605 0.11547,0.18684 -0.46932,0.53297 -1.29954,0.76917 -0.83021,0.23621 -1.6603,0.56145 -1.84462,0.72277 -0.50026,0.43782 -0.89959,0.35484 -0.89959,-0.18694 z m 6.35,-2.87114 c 0,-0.29105 0.15377,-0.52917 0.34171,-0.52917 0.18794,0 0.25033,0.23812 0.13865,0.52917 -0.11169,0.29104 -0.26545,0.52916 -0.34171,0.52916 -0.0762,0 -0.13865,-0.23812 -0.13865,-0.52916 z m -48.655474,-0.73496 c 0.0169,-0.41097 0.10052,-0.49456 0.21314,-0.21313 0.1019,0.25465 0.0894,0.55893 -0.0278,0.67615 -0.11722,0.11723 -0.2006,-0.0911 -0.18528,-0.46302 z m 78.994364,-1.36089 c 0,-0.30249 0.15875,-0.54999 0.35278,-0.54999 0.19403,0 0.35278,0.14938 0.35278,0.33196 0,0.18258 -0.15875,0.43007 -0.35278,0.54999 -0.19403,0.11991 -0.35278,-0.0295 -0.35278,-0.33196 z m 8.11389,-0.90277 c 0,-0.19402 0.15875,-0.35277 0.35278,-0.35277 0.19403,0 0.35278,0.15875 0.35278,0.35277 0,0.19403 -0.15875,0.35278 -0.35278,0.35278 -0.19403,0 -0.35278,-0.15875 -0.35278,-0.35278 z M 85.727326,227.04917 c 0.14382,-0.37479 -0.0198,-0.62336 -0.49142,-0.7467 -0.51942,-0.13584 -0.70558,-0.47818 -0.70161,-1.29027 0.004,-0.84343 0.0864,-0.97998 0.34738,-0.57622 0.30045,0.46492 0.4944,0.27233 0.40687,-0.40402 -0.0162,-0.1252 0.56031,-0.33784 1.28114,-0.47254 0.72083,-0.1347 1.4949,-0.39716 1.72016,-0.58325 0.26465,-0.21863 0.49172,-0.20542 0.64174,0.0373 0.1277,0.20662 0.41685,0.26153 0.64257,0.12203 0.71185,-0.43995 1.79944,-0.3901 2.82168,0.12933 0.54327,0.27606 1.2873,0.40686 1.65341,0.29066 0.55139,-0.17501 0.64857,-0.0513 0.56624,0.72094 -0.0547,0.51271 -0.24307,1.03617 -0.41868,1.16323 -0.17562,0.12706 -0.3193,0.45231 -0.3193,0.72277 0,0.38314 -0.6359,0.48413 -2.87891,0.45722 -2.30971,-0.0277 -2.92083,0.0747 -3.09098,0.51812 -0.18079,0.47115 -0.29795,0.48176 -0.79443,0.0719 -0.45489,-0.37548 -0.61485,-0.38418 -0.73078,-0.0397 -0.0816,0.24253 -0.31092,0.44097 -0.50954,0.44097 -0.19862,0 -0.26411,-0.25281 -0.14554,-0.56181 z m 19.421434,-1.93616 c -0.13245,-0.21431 -0.95266,-0.33018 -1.87289,-0.26458 -1.16945,0.0834 -1.61205,-0.009 -1.54905,-0.32426 0.0485,-0.24253 -0.14093,-0.44097 -0.42097,-0.44097 -0.28004,0 -0.73084,-0.31649 -1.00178,-0.70331 -0.27094,-0.38682 -0.597454,-0.59849 -0.725564,-0.47037 -0.12812,0.12812 -0.23294,-0.0218 -0.23294,-0.33309 0,-0.62149 1.277254,-0.7195 2.023884,-0.15531 0.24002,0.18137 0.83533,0.22963 1.32292,0.10726 0.65543,-0.16451 0.88653,-0.0828 0.88653,0.31338 0,0.58045 0.48013,0.64385 1.58749,0.20964 0.44169,-0.17319 0.98961,-0.0912 1.46511,0.21935 l 0.75954,0.496 -0.86378,0.86378 c -0.98167,0.98168 -1.05428,1.00709 -1.3785,0.48248 z m 22.6326,-0.84985 c -0.78579,-0.72824 -0.88292,-0.99958 -0.56827,-1.5875 0.20873,-0.39002 0.49299,-0.71926 0.63168,-0.73165 0.1387,-0.0124 0.79977,-0.0758 1.46906,-0.1409 1.34364,-0.13072 2.84006,0.31045 2.84006,0.83728 0,0.1862 -0.16138,0.76301 -0.35863,1.2818 -0.27592,0.72574 -0.46563,0.85444 -0.82269,0.55811 -0.34107,-0.28306 -0.6434,-0.24945 -1.14068,0.12683 -0.9002,0.68115 -0.95419,0.67209 -2.05053,-0.34397 z m -7.88501,-1.32625 c 0.0817,-0.24266 -0.10343,-0.64962 -0.4115,-0.90434 -0.42042,-0.34762 -0.44959,-0.50912 -0.11696,-0.64749 0.24375,-0.1014 0.35344,-0.32955 0.24376,-0.50701 -0.10967,-0.17745 0.37058,-0.32265 1.06721,-0.32265 0.80045,0 1.34135,0.19476 1.46968,0.52917 0.11168,0.29104 0.41483,0.52917 0.67366,0.52917 0.61028,0 0.97323,0.59785 0.66536,1.09599 -0.16822,0.27218 -0.33317,0.24547 -0.54459,-0.0882 -0.23625,-0.37285 -0.30447,-0.3422 -0.30868,0.13873 -0.003,0.33954 -0.26051,0.61736 -0.57231,0.61736 -0.3807,0 -0.49392,-0.19021 -0.34471,-0.57907 0.16529,-0.43072 0.10718,-0.48994 -0.22683,-0.23115 -0.80978,0.6274 -1.75477,0.84643 -1.59409,0.36948 z m -12.96607,-0.26482 c 0.11991,-0.19403 0.28803,-0.35278 0.3736,-0.35278 0.0856,0 0.15556,0.15875 0.15556,0.35278 0,0.19403 -0.16812,0.35278 -0.37359,0.35278 -0.20548,0 -0.27549,-0.15875 -0.15557,-0.35278 z m 17.51274,-35.40296 c -0.83901,-0.89578 -1.54919,-2.6223 -1.26667,-3.07942 0.10985,-0.17774 0.83095,-0.32317 1.60244,-0.32317 0.77148,0 1.76106,-0.23481 2.19906,-0.5218 0.51653,-0.33845 1.44176,-0.48319 2.63307,-0.41193 1.82908,0.10942 2.78171,0.52968 1.90691,0.84127 -0.34003,0.12111 -0.29412,0.28925 0.17639,0.64604 0.60573,0.45932 0.60242,0.4831 -0.0695,0.49893 -0.58594,0.0138 -0.61584,0.0747 -0.17639,0.35914 0.78122,0.50566 -1.19392,1.99693 -2.99861,2.26401 -0.77611,0.11485 -1.83564,0.27067 -2.35451,0.34625 -0.63667,0.0927 -1.17384,-0.10861 -1.65219,-0.61932 z m -14.37361,-0.28562 c -0.13964,-0.22594 -0.28962,-0.86506 -0.3333,-1.42026 -0.0848,-1.07796 0.88695,-1.92351 2.01361,-1.75211 0.32236,0.049 0.69052,-0.0798 0.81813,-0.28625 0.12761,-0.20648 0.39754,-0.27311 0.59986,-0.14808 0.20231,0.12504 0.51186,0.009 0.68788,-0.25883 0.46124,-0.70066 1.3184,0.49298 1.10783,1.54272 -0.32902,1.64031 -4.18479,3.47034 -4.89401,2.32281 z m -31.144034,-3.58734 c -0.0225,-0.35572 -0.23936,-0.57619 -0.4819,-0.48994 -0.24253,0.0862 -1.02322,-0.13521 -1.73485,-0.49213 -1.22264,-0.61321 -1.28992,-0.73583 -1.22211,-2.22729 0.0842,-1.85297 0.0966,-1.87024 1.51139,-2.1195 0.86048,-0.15159 1.28628,0.004 2.01776,0.73498 0.50991,0.50992 0.94738,1.10391 0.97214,1.31999 0.19409,1.6936 0.15989,2.029 -0.22981,2.25413 -0.24317,0.14047 -0.52077,0.5729 -0.61691,0.96096 -0.15354,0.61978 -0.17977,0.62693 -0.21571,0.0588 z m 13.45282,-1.89527 c -0.43656,-0.0841 -0.79375,-0.38393 -0.79375,-0.66633 0,-0.28613 -0.45989,-0.60543 -1.03877,-0.7212 -0.79366,-0.15874 -1.06421,-0.42721 -1.14653,-1.13771 -0.0597,-0.51515 -0.30445,-0.89062 -0.54872,-0.84176 -0.27668,0.0553 -0.45021,-0.33899 -0.46577,-1.05834 -0.0161,-0.74311 -0.10917,-0.9463 -0.26459,-0.57748 -0.16286,0.3865 -0.46006,0.49039 -0.92645,0.32385 -0.64405,-0.22997 -0.63661,-0.25828 0.11983,-0.45609 0.62456,-0.16333 0.7542,-0.37565 0.57469,-0.94122 -0.13558,-0.42719 -0.0755,-0.73031 0.14476,-0.73031 0.20711,0 0.37655,0.23813 0.37655,0.52917 0,0.29104 0.23195,0.52917 0.51543,0.52917 0.28348,0 0.84729,0.35622 1.2529,0.79159 0.77883,0.83597 2.29377,0.97797 5.56893,0.52197 1.38337,-0.19261 1.54586,-0.13368 1.85208,0.67173 0.48169,1.26694 0.41372,2.24804 -0.15576,2.24804 -0.27028,0 -0.5828,0.23813 -0.69448,0.52917 -0.11169,0.29104 -0.51618,0.52916 -0.89887,0.52916 -0.38269,0 -0.79392,0.15875 -0.91384,0.35278 -0.21876,0.35396 -1.07785,0.38883 -2.55764,0.10381 z m 0.20664,-20.54093 c -0.18506,-0.48675 -0.26259,-1.16752 -0.17229,-1.51282 0.0903,-0.34531 -0.006,-0.62784 -0.21436,-0.62784 -0.2082,0 -0.27655,-0.10199 -0.15189,-0.22665 0.12466,-0.12467 0.47535,-0.0203 0.7793,0.23199 0.4186,0.3474 0.6517,0.35959 0.96103,0.0503 0.22461,-0.22461 0.6809,-0.40838 1.01398,-0.40838 0.33308,0 0.68612,-0.19844 0.78453,-0.44098 0.13473,-0.33203 0.27271,-0.31025 0.55857,0.0882 0.23872,0.33274 0.47784,0.39822 0.64422,0.17639 0.40746,-0.54329 1.49275,-0.61573 1.55303,-0.10366 0.094,0.7988 0.18409,1.14637 0.46492,1.79457 0.15074,0.34791 0.15335,0.74479 0.006,0.88194 -0.14755,0.13716 -0.33951,0.0498 -0.42659,-0.1941 -0.11554,-0.32364 -0.42893,-0.25078 -1.15981,0.26965 -0.58071,0.41351 -1.69525,0.75373 -2.65272,0.80977 -1.47998,0.0866 -1.68614,0.005 -1.98772,-0.78835 z m 14.543934,0.06 c -0.49596,-1.08852 -0.47363,-1.73848 0.0661,-1.92403 0.55436,-0.19057 2.65211,-0.0318 3.71919,0.28156 0.57359,0.16842 0.77876,0.10223 0.70556,-0.22762 -0.0568,-0.2558 0.1349,-0.50364 0.42594,-0.55075 3.12279,-0.50547 3.28211,-0.55396 2.79965,-0.85214 -0.32292,-0.19958 0.0971,-0.27548 1.17363,-0.21207 1.7501,0.1031 2.79916,0.84147 3.02055,2.126 0.0817,0.47392 -0.04,0.60592 -0.42301,0.45894 -0.36816,-0.14127 -0.47582,-0.0452 -0.34149,0.30488 0.10789,0.28116 0.004,0.5112 -0.2321,0.5112 -0.23575,0 -0.33698,0.23788 -0.22521,0.52917 0.22661,0.59054 0.0626,0.60557 -2.32219,0.21284 -1.11438,-0.18352 -1.70823,-0.14737 -1.79472,0.10922 -0.0847,0.25137 -0.34148,0.20827 -0.74522,-0.1251 -0.79747,-0.65846 -1.89017,-0.73279 -2.11613,-0.14396 -0.11559,0.30121 -0.72714,0.43817 -1.75649,0.39337 -1.27572,-0.0555 -1.6512,-0.22683 -1.95405,-0.89151 z m -34.243994,-0.61581 c -0.42737,-0.4549 -0.66547,-1.0076 -0.52912,-1.22822 0.13635,-0.22062 -0.0455,-0.73591 -0.40401,-1.14509 -0.35855,-0.40918 -0.45348,-0.62794 -0.21095,-0.48612 0.53223,0.31121 0.56099,0.0413 0.0895,-0.83976 -0.74185,-1.38614 -0.11775,-1.7784 2.67845,-1.68349 1.53331,0.052 2.66501,0.25224 2.75525,0.4874 0.0842,0.2195 0.76113,0.50833 1.50422,0.64185 0.7431,0.13352 1.79414,0.43138 2.33564,0.6619 0.81335,0.34626 0.94684,0.5725 0.76767,1.30109 -0.11929,0.48507 -0.36674,0.93581 -0.54989,1.00164 -0.18314,0.0658 -0.53237,0.30395 -0.77606,0.52916 -0.24369,0.22521 -0.67592,0.46189 -0.9605,0.52596 -0.28459,0.0641 -0.6258,0.29183 -0.75826,0.50615 -0.13246,0.21432 -1.34875,0.42679 -2.70286,0.47215 -2.18452,0.0732 -2.54961,-0.0108 -3.23905,-0.74462 z M 122.0646,145.18934 c -0.50614,-0.26259 -1.06248,-0.38953 -1.23632,-0.2821 -0.47466,0.29337 -0.38008,-0.68223 0.13436,-1.38576 0.59061,-0.80771 3.13569,-1.4064 3.49655,-0.82252 0.25038,0.40512 0.38659,0.45589 1.48617,0.554 0.32288,0.0288 0.48278,0.44888 0.46116,1.21152 -0.0327,1.15221 -0.0552,1.16766 -1.72738,1.18487 -0.93186,0.01 -2.1084,-0.19742 -2.61454,-0.46001 z"
       id="path5199"
       inkscape:connector-curvature="0" />
  </g>
</svg>
